<?xml version="1.0" standalone="no"?>
<!DOCTYPE svg PUBLIC "-//W3C//DTD SVG 20010904//EN"
 "http://www.w3.org/TR/2001/REC-SVG-20010904/DTD/svg10.dtd">
<svg version="1.0" xmlns="http://www.w3.org/2000/svg"
 width="900.000000pt" height="900.000000pt" viewBox="0 0 900.000000 900.000000"
 preserveAspectRatio="xMidYMid meet">
<metadata>
Created by potrace 1.11, written by Peter Selinger 2001-2013
</metadata>
<g transform="translate(0.000000,900.000000) scale(0.100000,-0.100000)"
fill="#000000" stroke="none">
<path d="M4607 8987 c2 -4 7 -6 11 -3 4 2 16 0 27 -5 14 -5 7 -7 -22 -5 -24 1
-43 -2 -43 -8 0 -5 -7 -1 -16 10 -8 10 -13 13 -9 7 3 -7 0 -13 -7 -14 -7 0
-44 -2 -81 -3 -44 -2 -72 -8 -77 -16 -10 -16 -50 -24 -50 -11 0 6 9 8 20 6 12
-2 20 2 20 10 0 14 -12 14 -42 0 -10 -4 -15 -11 -12 -16 9 -16 -7 -10 -24 9
-10 9 -14 13 -9 8 12 -17 8 -27 -10 -25 -59 5 -102 -2 -106 -18 -4 -17 -5 -17
-6 0 -1 21 -21 23 -21 2 0 -8 -3 -15 -7 -16 -10 -1 -153 -9 -175 -10 -9 0 -15
-6 -12 -12 4 -12 -26 -16 -128 -21 -20 -1 -40 -5 -45 -10 -4 -5 -3 -6 3 -3 7
4 14 1 17 -6 3 -7 -4 -12 -18 -12 -13 0 -21 4 -17 9 3 5 -1 5 -9 0 -8 -4 -38
-9 -67 -10 -29 -1 -58 -6 -63 -11 -7 -7 -2 -9 16 -7 15 1 24 0 21 -4 -9 -8
-66 -10 -61 -1 3 4 -2 9 -10 12 -9 4 -12 1 -9 -7 3 -9 -8 -13 -42 -14 -34 -2
-52 -8 -65 -24 -11 -11 -19 -16 -19 -9 0 7 -5 9 -12 5 -7 -4 -8 -3 -4 5 4 6
12 9 17 6 5 -4 9 -1 9 4 0 14 -11 13 -32 -3 -10 -7 -14 -17 -10 -21 4 -4 -4
-2 -17 5 -17 9 -21 9 -16 0 4 -7 1 -11 -6 -9 -36 4 -89 -2 -89 -12 0 -5 6 -7
13 -3 6 4 8 3 4 -2 -8 -8 -25 -11 -108 -16 -30 -1 -45 -6 -42 -13 2 -7 -3 -12
-12 -12 -9 0 -14 5 -12 11 3 6 -7 12 -21 13 -22 1 -23 -1 -9 -8 29 -17 19 -24
-36 -24 -40 -1 -51 -4 -49 -15 3 -10 -3 -9 -19 5 -12 11 -19 14 -15 8 4 -7 2
-13 -4 -13 -6 0 -9 -4 -6 -8 6 -10 3 -10 -76 -13 -46 -2 -58 -6 -65 -23 -9
-18 -10 -18 -16 -2 -5 11 -3 15 5 10 7 -4 8 -3 4 4 -8 13 -46 -1 -46 -16 0 -7
-36 -11 -123 -15 -27 -1 -39 -6 -43 -20 -5 -16 -8 -17 -15 -6 -5 8 -9 10 -9 4
0 -5 -24 -10 -52 -9 -62 0 -88 -5 -88 -18 0 -5 9 -4 20 2 14 7 20 7 20 0 0
-12 7 -12 -167 -15 -98 -1 -143 2 -143 9 0 7 -3 7 -8 1 -10 -15 -79 -13 -79 2
0 9 6 9 21 1 17 -9 19 -8 9 3 -12 12 -31 15 -148 20 -27 2 -42 4 -32 7 41 9 6
23 -63 24 -18 1 -41 18 -36 27 2 3 -9 7 -25 7 -19 1 -26 -2 -22 -10 4 -7 1 -6
-9 2 -8 6 -29 14 -47 16 -17 2 -35 7 -39 11 -4 4 0 5 8 4 8 -2 15 0 15 6 0 5
-24 9 -52 10 -29 0 -53 3 -53 7 0 5 5 8 11 8 5 0 7 5 3 11 -5 8 -10 6 -16 -5
-5 -9 -17 -16 -26 -15 -14 0 -14 2 2 8 26 10 8 21 -28 17 -20 -3 -31 3 -43 20
-14 23 -16 23 -38 6 -18 -14 -22 -25 -20 -65 1 -33 -2 -46 -10 -43 -6 2 -12
-2 -12 -10 0 -7 4 -11 9 -8 4 3 8 -1 9 -8 0 -7 2 -21 4 -31 2 -9 -1 -15 -5
-12 -5 3 -11 1 -15 -5 -3 -5 0 -10 7 -10 8 0 14 -9 14 -20 0 -11 -5 -18 -11
-16 -5 2 -9 9 -7 15 1 7 -2 10 -8 6 -8 -5 -8 -11 -1 -19 6 -7 7 -17 3 -21 -4
-5 -1 -5 6 -1 7 4 12 2 13 -6 0 -7 2 -21 4 -31 2 -9 -1 -15 -5 -12 -5 3 -11 1
-15 -5 -3 -5 0 -10 8 -10 19 0 17 -31 -3 -48 -8 -8 -9 -11 -2 -7 6 3 12 0 13
-7 0 -7 2 -23 3 -36 2 -14 -2 -21 -9 -18 -6 2 -12 -2 -12 -10 0 -7 4 -11 8 -9
4 3 9 -8 11 -25 2 -16 1 -27 -3 -24 -4 2 -10 0 -14 -6 -3 -5 0 -10 7 -10 8 0
14 -9 14 -20 0 -11 -5 -18 -11 -16 -5 2 -9 9 -7 15 1 7 -2 10 -8 6 -8 -5 -8
-11 -1 -19 6 -7 7 -17 3 -21 -4 -5 -1 -5 6 -1 7 4 12 2 13 -6 0 -7 2 -21 4
-31 2 -9 -1 -15 -5 -12 -5 3 -11 1 -15 -5 -3 -5 0 -10 8 -10 19 0 17 -31 -3
-48 -8 -8 -9 -11 -2 -7 6 3 12 0 13 -7 0 -7 2 -23 3 -36 2 -14 -2 -21 -9 -18
-6 2 -12 -2 -12 -10 0 -7 4 -11 9 -8 4 3 8 -1 9 -8 0 -7 2 -21 4 -31 2 -9 -1
-15 -5 -12 -5 3 -11 1 -15 -5 -3 -5 0 -10 7 -10 8 0 14 -9 14 -20 0 -11 -5
-18 -11 -16 -5 2 -9 9 -7 15 1 7 -2 10 -8 6 -8 -5 -8 -11 -1 -19 6 -7 7 -17 3
-21 -4 -5 -2 -5 4 -2 7 4 13 -4 16 -23 2 -16 1 -27 -3 -24 -4 2 -10 0 -14 -6
-3 -5 0 -10 8 -10 19 0 17 -31 -3 -48 -8 -8 -10 -11 -4 -8 7 3 14 0 17 -8 3
-8 -1 -17 -10 -20 -8 -4 -13 -12 -10 -20 3 -7 0 -20 -6 -27 -10 -11 -9 -11 5
-1 11 9 18 10 23 2 3 -5 0 -10 -7 -10 -11 0 -10 -2 0 -9 11 -6 10 -10 -3 -15
-9 -3 -15 -12 -12 -20 3 -7 0 -20 -6 -27 -10 -11 -9 -11 5 -1 9 8 19 9 22 4 3
-6 -1 -13 -10 -16 -8 -3 -13 -10 -10 -15 4 -5 1 -12 -4 -14 -6 -3 -5 -4 2 -2
7 1 12 9 10 16 -2 8 0 10 5 6 13 -13 9 -41 -7 -55 -8 -8 -9 -11 -2 -7 6 3 12
0 13 -7 0 -7 2 -21 4 -31 2 -9 -1 -15 -5 -12 -5 3 -11 1 -15 -5 -3 -5 0 -10 7
-10 8 0 14 -9 14 -20 0 -11 -5 -18 -11 -16 -5 2 -9 9 -7 15 1 7 -2 10 -8 6 -8
-5 -8 -11 -1 -19 6 -7 7 -17 3 -21 -4 -5 -2 -5 4 -2 7 4 13 -4 16 -23 2 -16 1
-27 -3 -24 -4 2 -10 0 -14 -6 -3 -5 0 -10 8 -10 19 0 17 -31 -3 -48 -8 -8 -10
-11 -4 -8 7 3 14 0 17 -8 3 -8 0 -17 -7 -19 -7 -3 -16 -17 -18 -31 -3 -14 -1
-23 3 -20 5 3 9 15 9 26 0 26 13 15 15 -12 1 -11 -3 -20 -9 -20 -6 0 -5 -4 2
-9 11 -7 11 -9 -1 -14 -8 -3 -17 -17 -19 -31 -3 -14 -1 -23 3 -20 5 3 9 15 9
26 0 12 3 18 7 14 10 -10 10 -40 0 -47 -5 -3 -9 -12 -10 -20 -2 -8 -6 -19 -10
-26 -4 -6 -3 -14 1 -17 5 -3 8 -17 7 -31 -2 -14 1 -23 6 -19 5 3 10 -7 11 -23
2 -46 3 -51 10 -58 4 -4 4 -13 1 -21 -3 -8 1 -15 8 -15 8 -1 19 -2 24 -4 6 -1
23 -3 39 -3 18 -1 26 -6 23 -14 -3 -9 10 -14 46 -15 64 -2 99 -11 92 -23 -3
-5 -1 -11 5 -15 10 -6 15 9 10 30 -1 5 2 6 7 2 4 -5 8 -14 8 -20 0 -8 18 -12
47 -12 25 0 44 -4 41 -9 -3 -4 5 -5 18 -2 19 6 20 5 8 -3 -9 -6 -26 -9 -38 -6
-12 2 -20 1 -17 -3 2 -4 35 -9 72 -10 75 -3 81 -5 68 -25 -5 -7 -1 -4 9 6 17
19 17 19 17 0 0 -16 8 -19 43 -20 59 -1 96 -6 92 -13 -8 -13 24 -25 68 -25 27
0 51 -3 54 -8 2 -4 9 -4 15 -1 7 4 8 2 4 -4 -6 -11 0 -14 20 -11 4 0 11 -5 15
-13 6 -8 9 -9 9 -1 0 6 9 9 20 6 11 -3 20 -10 20 -15 0 -5 -5 -6 -10 -3 -6 3
-10 1 -10 -4 0 -17 18 -13 29 7 10 16 10 16 11 0 0 -18 25 -24 74 -18 13 1 16
-2 10 -12 -6 -10 -4 -10 9 1 10 8 17 9 17 3 0 -6 -8 -16 -17 -21 -24 -14 -7
-14 18 0 11 5 17 15 13 22 -4 7 -3 8 2 4 5 -5 9 -14 9 -20 0 -6 11 -12 25 -13
72 -6 88 -9 84 -16 -3 -5 -11 -5 -17 -2 -8 5 -9 4 -2 -4 6 -6 38 -13 73 -14
44 -2 62 -7 62 -16 0 -8 -5 -10 -12 -6 -7 4 -9 3 -5 -1 4 -5 36 -10 70 -10 55
-1 62 -4 59 -21 -3 -18 -3 -18 13 1 14 17 16 18 11 2 -3 -11 -1 -17 7 -16 39
5 107 -2 102 -11 -3 -5 -1 -10 4 -10 6 0 11 4 11 9 0 5 11 8 24 7 13 0 23 -3
21 -6 -2 -3 0 -12 6 -20 7 -12 9 -11 9 5 1 17 2 18 10 4 7 -12 26 -16 85 -15
63 1 74 -1 70 -14 -4 -13 -4 -13 7 0 9 10 29 14 63 13 28 -1 66 -2 85 -2 26
-1 31 -4 20 -11 -8 -5 -10 -10 -4 -10 6 0 18 7 25 16 12 14 14 14 20 -3 7 -17
8 -17 8 0 1 15 5 16 21 7 15 -8 20 -8 20 2 0 9 3 9 10 -2 5 -8 10 -10 10 -5 0
6 47 10 121 10 66 0 123 3 125 7 3 5 0 8 -7 8 -7 0 -9 3 -5 7 3 4 41 8 83 10
42 2 83 9 91 16 13 9 14 9 8 0 -5 -9 0 -13 17 -13 16 0 26 7 30 20 4 17 9 19
29 11 14 -5 30 -6 37 -1 8 4 29 6 47 4 19 -1 34 2 34 7 0 6 -5 7 -11 3 -7 -4
-10 -1 -7 7 2 7 18 14 34 15 105 6 114 8 114 21 0 7 11 13 25 13 36 0 39 1 54
13 12 10 13 9 7 -3 -4 -8 2 -4 15 10 21 24 21 24 15 3 -5 -14 -3 -23 3 -23 6
0 10 3 10 8 -4 24 4 32 36 32 19 0 42 8 52 18 10 9 27 17 38 17 11 -1 26 8 33
20 12 19 13 19 6 -3 -5 -22 -4 -23 15 -13 12 7 21 14 21 17 0 3 -4 2 -10 -1
-6 -3 -7 1 -4 10 5 11 10 13 17 6 6 -6 16 -7 27 -1 9 5 29 7 44 4 23 -4 25 -3
14 10 -7 7 -17 11 -22 8 -5 -3 -6 -1 -3 5 3 5 26 9 51 8 37 -2 45 2 50 19 5
16 8 18 15 7 6 -9 10 -10 12 -2 2 6 21 12 41 14 21 2 41 7 45 12 5 4 2 5 -4 1
-8 -4 -13 -2 -13 6 0 9 13 13 40 13 32 0 40 3 40 17 0 10 5 18 11 18 5 0 8 -4
4 -9 -3 -5 -1 -13 5 -16 6 -4 10 -3 9 2 -4 25 2 35 14 25 8 -7 18 -7 27 -2 8
5 18 6 24 3 5 -4 7 1 3 10 -3 10 -3 17 1 18 41 5 69 12 77 21 7 8 5 9 -7 5
-10 -3 -20 -2 -23 2 -2 5 11 8 30 6 19 -1 35 2 35 8 0 5 7 6 16 3 10 -4 18 0
21 13 3 14 13 18 34 17 28 -2 35 8 30 38 -1 5 4 4 13 -3 9 -8 16 -8 20 -2 4 6
14 7 24 4 14 -5 14 -3 -2 9 -18 14 -17 16 17 22 21 4 37 11 37 17 0 6 -5 7
-12 3 -7 -4 -8 -3 -4 4 4 7 15 12 26 12 11 0 20 10 24 25 4 14 11 24 17 22 6
-1 13 9 15 22 3 14 12 33 21 43 17 19 25 68 11 68 -4 0 -12 -8 -17 -17 -6 -10
-11 -13 -11 -6 0 6 6 18 14 25 7 8 14 27 14 42 0 18 -3 24 -9 15 -4 -7 -6 -16
-3 -20 2 -4 1 -10 -4 -13 -4 -2 -9 5 -9 17 -5 77 -7 87 -20 87 -7 0 -13 5 -13
11 0 6 -7 17 -15 25 -8 9 -15 12 -15 7 0 -5 5 -14 10 -19 7 -7 6 -11 -4 -11
-8 0 -13 4 -10 8 7 12 -17 22 -64 26 -28 2 -50 10 -58 21 -12 15 -12 15 -7 -6
4 -17 2 -21 -10 -16 -9 3 -14 11 -11 17 6 17 -174 17 -184 0 -13 -21 -64 -24
-79 -5 -9 11 -12 12 -11 3 2 -10 -14 -14 -68 -16 -40 -1 -77 -6 -83 -9 -6 -4
-11 -1 -11 6 -1 7 -7 2 -16 -12 l-15 -25 5 25 c3 14 3 19 0 12 -3 -6 -11 -9
-17 -5 -6 4 -8 0 -4 -10 5 -13 -2 -15 -44 -14 -27 1 -49 0 -49 -3 0 -4 -35 -6
-220 -12 -14 0 -19 -3 -12 -5 6 -3 12 -8 12 -12 0 -10 -179 -11 -186 0 -3 5 0
9 6 9 6 0 8 5 4 13 -5 7 0 6 11 -3 11 -9 16 -10 11 -2 -4 7 -2 12 4 12 6 0 9
4 6 8 -2 4 4 14 16 21 15 9 18 10 13 0 -5 -8 -4 -10 3 -5 7 4 12 15 12 24 0
15 2 15 10 2 8 -13 10 -12 10 4 0 12 5 16 15 12 8 -3 15 -1 15 5 0 6 9 8 20 4
12 -4 20 -2 20 5 0 6 -4 9 -9 5 -5 -3 -12 -2 -15 3 -2 4 5 9 17 10 19 3 44 6
69 11 5 0 7 7 5 14 -1 7 9 12 27 12 15 1 34 9 41 18 7 9 19 17 27 17 8 0 19 5
25 11 7 7 13 7 17 0 4 -5 13 -8 21 -5 8 4 12 11 8 17 -3 6 -1 7 5 3 7 -4 12
-3 12 3 0 6 7 8 15 5 8 -4 15 -1 15 6 0 9 4 9 13 2 8 -7 18 -7 27 -2 8 5 18 6
22 4 4 -3 8 2 8 10 0 12 11 16 43 17 105 2 123 5 140 19 11 9 40 15 75 16 31
1 91 3 133 4 42 2 82 -1 89 -5 9 -6 12 -4 8 7 -4 8 0 15 8 15 7 0 11 -4 8 -9
-3 -4 19 -7 48 -5 36 3 52 8 50 16 -1 7 2 10 8 6 6 -3 8 -10 5 -15 -3 -5 25
-9 62 -10 149 -2 178 -4 185 -14 5 -8 8 -8 8 0 0 6 11 12 25 12 14 0 25 -4 25
-9 0 -13 34 -11 50 4 8 6 7 3 -2 -8 -16 -19 -15 -20 18 -21 30 -1 33 1 22 15
-12 15 -11 15 7 0 24 -20 65 -31 65 -18 0 6 7 6 19 0 10 -6 22 -7 26 -3 5 4 5
1 1 -6 -5 -7 -15 -11 -23 -8 -8 3 -12 2 -9 -3 3 -5 20 -8 38 -7 18 2 37 0 42
-2 5 -3 34 -6 64 -6 40 -1 57 -5 59 -16 4 -13 3 -13 -6 0 -8 11 -11 12 -11 2
0 -8 -5 -10 -12 -6 -7 4 -9 3 -5 -1 6 -8 68 -15 129 -16 10 0 20 -4 23 -8 2
-5 -7 -7 -22 -5 -14 1 -22 -1 -17 -6 5 -5 30 -11 56 -13 42 -3 81 -17 48 -17
-7 0 -10 -3 -6 -7 7 -7 18 -8 88 -12 20 -1 26 -5 22 -16 -6 -15 0 -17 62 -18
15 -1 20 -6 16 -19 -3 -13 1 -16 17 -13 12 2 21 -1 21 -8 0 -7 4 -6 10 3 8 12
10 10 10 -9 0 -20 2 -22 16 -11 12 11 15 11 12 0 -2 -8 4 -15 12 -15 8 -1 23
-5 33 -9 15 -7 16 -11 5 -17 -8 -6 0 -9 23 -9 28 0 38 -5 42 -20 3 -13 10 -18
21 -14 11 4 16 1 16 -10 0 -9 7 -16 15 -16 26 0 65 -23 65 -39 0 -13 2 -13 9
-2 6 10 10 10 16 1 4 -6 13 -9 21 -6 8 3 13 2 13 -2 -4 -22 3 -32 21 -32 11 0
20 -7 20 -16 0 -8 5 -12 10 -9 6 4 7 12 4 18 -4 7 -3 8 2 4 5 -5 9 -14 9 -20
0 -7 9 -12 20 -12 11 0 19 -6 17 -12 -1 -7 3 -13 9 -13 5 0 7 -6 3 -12 -5 -9
-2 -9 9 1 13 10 20 11 31 2 7 -6 21 -9 30 -5 11 4 16 1 16 -10 0 -9 5 -16 10
-16 18 0 25 -4 41 -24 13 -16 16 -16 16 -3 0 9 -5 13 -10 10 -6 -3 -7 -1 -3 6
9 14 26 5 26 -15 0 -13 33 -17 142 -17 10 0 15 -3 13 -7 -3 -4 -21 -6 -40 -4
-19 1 -35 -1 -35 -6 0 -4 8 -7 18 -5 9 1 22 -2 28 -6 7 -6 21 -1 37 11 18 15
28 17 33 9 4 -7 3 -9 -4 -5 -6 3 -13 2 -17 -4 -3 -5 0 -10 7 -11 7 0 23 -2 35
-3 26 -3 51 10 40 21 -5 4 -13 1 -18 -7 -9 -13 -10 -13 -7 0 5 16 68 24 68 9
0 -5 -5 -8 -11 -6 -6 1 -14 -5 -16 -13 -3 -10 -2 -11 4 -4 4 6 16 10 25 9 11
-2 15 2 11 11 -4 10 3 14 22 14 19 0 26 4 22 13 -5 13 0 15 43 19 20 2 24 10
21 36 -2 10 4 12 18 7 17 -5 21 -2 22 17 1 13 1 29 0 36 -1 6 3 12 9 12 6 0 9
-4 5 -9 -3 -5 -2 -12 3 -15 10 -6 11 1 14 59 1 22 9 46 18 53 13 12 13 13 0 9
-12 -4 -15 9 -16 70 -1 41 -6 79 -12 85 -6 6 -8 0 -6 -17 1 -15 0 -24 -4 -21
-7 8 -13 35 -13 59 0 12 -5 17 -14 13 -8 -3 -17 -1 -20 4 -4 6 -1 10 4 10 6 0
11 5 11 10 0 6 -11 10 -25 10 -14 0 -25 5 -25 11 0 5 4 8 9 4 5 -3 13 0 17 6
4 7 3 9 -4 5 -6 -3 -15 2 -21 11 -6 10 -11 13 -11 7 0 -6 -7 -11 -15 -11 -8 0
-12 4 -10 8 9 14 -7 38 -21 32 -9 -3 -14 2 -14 16 0 14 -5 19 -16 14 -10 -4
-17 1 -21 16 -3 12 -12 20 -21 19 -10 -2 -17 4 -17 16 0 11 -6 21 -14 24 -9 3
-11 0 -6 -8 5 -9 4 -11 -4 -6 -6 4 -10 15 -9 24 2 9 -3 17 -9 18 -7 1 -17 2
-23 3 -5 0 -6 9 -3 19 6 15 5 15 -10 3 -15 -12 -17 -12 -11 3 4 12 2 15 -9 10
-15 -5 -50 33 -42 46 3 4 -2 13 -10 20 -8 7 -15 9 -15 5 0 -4 -12 5 -27 19
-15 15 -29 23 -31 17 -2 -7 -8 -6 -16 2 -8 6 -11 18 -8 25 3 9 -2 12 -14 10
-13 -2 -19 3 -18 15 1 12 -6 17 -23 17 -16 0 -22 4 -17 12 5 8 2 9 -11 4 -14
-5 -15 -4 -7 7 11 13 6 15 -44 19 -6 1 -9 9 -7 19 4 14 0 16 -17 12 -20 -5
-21 -4 -11 15 10 19 9 20 -14 16 -23 -4 -30 4 -26 29 0 4 -3 7 -9 7 -5 0 -10
-6 -10 -12 0 -9 -3 -8 -9 2 -6 8 -8 17 -5 21 2 4 0 10 -5 13 -5 4 -13 1 -17
-5 -5 -8 -3 -9 6 -4 9 6 11 4 6 -4 -9 -14 -21 -6 -21 12 0 7 -9 12 -20 12 -11
0 -21 6 -21 13 -1 6 -2 17 -3 23 -1 8 -7 7 -18 -2 -9 -8 -14 -9 -11 -4 9 15
-2 27 -42 48 -19 10 -27 16 -18 13 10 -3 19 -2 22 2 4 7 -17 12 -61 15 -8 0
-9 6 -2 19 5 10 6 18 2 17 -29 -5 -52 2 -47 15 3 9 -4 16 -21 20 -14 4 -35 16
-46 27 -11 11 -25 17 -32 12 -7 -4 -5 2 3 12 9 11 10 16 3 11 -7 -4 -13 -3
-13 2 0 5 -13 8 -30 7 -16 -1 -27 2 -24 7 4 5 12 7 20 4 8 -3 11 0 8 9 -3 7
-16 12 -29 10 -15 -1 -22 2 -18 8 4 6 0 8 -10 4 -10 -3 -17 -2 -17 3 0 6 5 10
10 10 6 0 10 4 10 8 0 5 -13 7 -30 6 -24 -2 -30 2 -30 18 0 14 -5 18 -16 14
-11 -4 -18 1 -21 14 -4 14 -14 20 -34 20 -22 0 -29 5 -29 20 0 11 -5 20 -11
20 -5 0 -7 -5 -4 -11 4 -6 -2 -5 -14 3 -14 8 -19 19 -16 33 5 15 2 14 -10 -5
-13 -21 -15 -22 -13 -5 2 14 -3 20 -17 20 -11 0 -20 7 -20 15 0 10 -10 15 -28
14 -30 0 -33 5 -14 26 6 8 1 6 -12 -5 -22 -18 -24 -18 -18 -2 5 13 1 17 -16
19 -12 0 -29 1 -37 2 -8 1 -13 6 -10 11 2 6 10 9 17 7 7 -2 13 1 13 6 0 5 -8
9 -17 9 -46 0 -64 4 -59 12 3 5 -2 15 -11 22 -9 8 -14 9 -10 2 5 -8 0 -9 -22
0 -17 6 -28 14 -25 18 7 12 -20 26 -48 24 -15 -1 -25 2 -22 7 3 4 10 6 15 3 5
-4 9 -1 9 4 0 6 -13 11 -30 11 -16 0 -30 5 -30 10 0 6 -5 10 -11 10 -5 0 -7
-5 -3 -12 5 -7 3 -8 -6 -3 -10 6 -9 11 6 22 18 13 18 14 -1 12 -38 -4 -66 1
-60 10 3 5 0 13 -6 17 -7 4 -9 3 -5 -4 3 -6 2 -13 -4 -17 -6 -3 -10 3 -10 15
0 16 -5 20 -15 16 -8 -3 -22 -3 -31 1 -13 5 -13 7 -2 14 10 7 10 9 -2 10 -8 0
-22 2 -30 4 -8 2 -28 6 -44 9 -16 3 -39 14 -50 26 -17 15 -25 17 -34 8 -9 -9
-12 -9 -12 1 0 7 -4 10 -9 6 -5 -3 -13 0 -17 6 -4 7 -3 9 4 5 6 -3 13 -3 16 2
3 5 -7 9 -22 9 -70 2 -82 7 -77 28 3 11 2 14 -1 7 -3 -6 -11 -9 -16 -6 -6 4
-8 2 -4 -4 3 -6 2 -14 -4 -17 -6 -4 -10 -3 -9 2 4 23 -4 30 -33 31 -71 1 -129
7 -119 10 6 2 11 7 11 12 0 13 -332 10 -349 -4 -12 -8 -13 -8 -7 2 11 19 -15
14 -30 -5 -11 -14 -13 -14 -9 -2 5 13 -5 15 -64 15 -38 -1 -67 -4 -64 -9z
m107 -8 c3 -3 -6 -5 -19 -5 -14 0 -25 4 -25 8 0 8 36 6 44 -3z m-704 -114 c0
-2 -9 -3 -19 -2 -11 0 -18 5 -15 9 4 6 34 0 34 -7z m-2486 -130 c3 -8 1 -15
-4 -15 -6 0 -10 7 -10 15 0 8 2 15 4 15 2 0 6 -7 10 -15z m321 -104 c3 -5 1
-12 -5 -16 -5 -3 -10 1 -10 9 0 18 6 21 15 7z m975 -5 c0 -3 -4 -8 -10 -11 -5
-3 -10 -1 -10 4 0 6 5 11 10 11 6 0 10 -2 10 -4z m-146 -38 c-3 -4 -15 -8 -27
-8 -15 0 -18 3 -9 8 17 11 43 11 36 0z m-149 -27 c3 -5 2 -12 -3 -15 -5 -3 -9
1 -9 9 0 17 3 19 12 6z m4601 -773 c4 -7 3 -8 -4 -4 -7 4 -12 2 -12 -5 0 -7
-3 -10 -6 -6 -6 5 3 27 11 27 2 0 7 -5 11 -12z m-5651 -98 c3 -5 1 -10 -4 -10
-6 0 -11 5 -11 10 0 6 2 10 4 10 3 0 8 -4 11 -10z m3785 -34 c0 -2 -7 -7 -16
-10 -8 -3 -12 -2 -9 4 6 10 25 14 25 6z m-385 -36 c-3 -5 -12 -10 -18 -10 -7
0 -6 4 3 10 19 12 23 12 15 0z m-3400 -10 c3 -5 1 -10 -4 -10 -6 0 -11 5 -11
10 0 6 2 10 4 10 3 0 8 -4 11 -10z m3595 -213 c0 -4 -11 -5 -25 -3 -13 3 -27
0 -31 -5 -6 -10 -24 -3 -24 10 0 4 18 8 40 7 22 0 40 -4 40 -9z m34 5 c3 -5
-1 -9 -9 -9 -8 0 -12 4 -9 9 3 4 7 8 9 8 2 0 6 -4 9 -8z m-679 -80 c-3 -3 -15
-6 -27 -7 -20 -2 -20 -1 -3 11 17 13 43 9 30 -4z m985 -156 c0 -2 -7 -9 -15
-16 -12 -10 -15 -10 -15 4 0 9 7 16 15 16 8 0 15 -2 15 -4z m-3935 -131 c0
-25 -4 -45 -9 -45 -4 0 -6 7 -3 15 4 8 2 17 -4 20 -5 4 -6 12 -2 18 4 7 8 15
9 20 6 31 9 21 9 -28z m135 -195 c0 -5 -2 -10 -4 -10 -3 0 -8 5 -11 10 -3 6
-1 10 4 10 6 0 11 -4 11 -10z m3360 0 c0 -5 -2 -10 -4 -10 -3 0 -8 5 -11 10
-3 6 -1 10 4 10 6 0 11 -4 11 -10z m-760 -280 c0 -5 -2 -10 -4 -10 -3 0 -8 5
-11 10 -3 6 -1 10 4 10 6 0 11 -4 11 -10z"/>
<path d="M5146 8988 c3 -4 9 -8 15 -8 5 0 9 4 9 8 0 5 -7 9 -15 9 -8 0 -12 -4
-9 -9z"/>
<path d="M4116 8921 c-4 -5 -2 -12 3 -15 5 -4 12 -2 15 3 4 5 2 12 -3 15 -5 4
-12 2 -15 -3z"/>
<path d="M5470 8891 c0 -5 7 -11 15 -15 8 -3 15 -1 15 3 0 5 -7 11 -15 15 -8
3 -15 1 -15 -3z"/>
<path d="M1475 8750 c-3 -5 -1 -10 4 -10 6 0 11 5 11 10 0 6 -2 10 -4 10 -3 0
-8 -4 -11 -10z"/>
<path d="M3275 8751 c-3 -5 -2 -12 3 -15 5 -3 9 1 9 9 0 17 -3 19 -12 6z"/>
<path d="M5850 8711 c0 -6 4 -13 10 -16 6 -3 7 1 4 9 -7 18 -14 21 -14 7z"/>
<path d="M1453 8676 c3 -8 2 -17 -4 -20 -5 -2 -4 -3 2 -2 15 3 21 36 7 36 -6
0 -8 -6 -5 -14z"/>
<path d="M1440 8596 c0 -2 7 -7 16 -10 8 -3 12 -2 9 4 -6 10 -25 14 -25 6z"/>
<path d="M2140 8576 c0 -2 7 -6 15 -10 8 -3 15 -1 15 4 0 6 -7 10 -15 10 -8 0
-15 -2 -15 -4z"/>
<path d="M1440 8476 c0 -2 7 -7 16 -10 8 -3 12 -2 9 4 -6 10 -25 14 -25 6z"/>
<path d="M1445 8409 c-4 -6 -5 -12 -2 -15 2 -3 7 2 10 11 7 17 1 20 -8 4z"/>
<path d="M1454 8352 c3 -5 0 -13 -6 -15 -9 -4 -10 -6 -1 -6 17 -1 25 16 12 25
-7 4 -9 3 -5 -4z"/>
<path d="M6490 8290 c0 -5 5 -10 11 -10 5 0 7 5 4 10 -3 6 -8 10 -11 10 -2 0
-4 -4 -4 -10z"/>
<path d="M1440 8156 c0 -2 7 -7 16 -10 8 -3 12 -2 9 4 -6 10 -25 14 -25 6z"/>
<path d="M1445 8089 c-4 -6 -5 -12 -2 -15 2 -3 7 2 10 11 7 17 1 20 -8 4z"/>
<path d="M1454 8032 c3 -5 0 -13 -6 -15 -9 -4 -10 -6 -1 -6 17 -1 25 16 12 25
-7 4 -9 3 -5 -4z"/>
<path d="M1440 7956 c0 -2 7 -7 16 -10 8 -3 12 -2 9 4 -6 10 -25 14 -25 6z"/>
<path d="M1445 7769 c-4 -6 -5 -12 -2 -15 2 -3 7 2 10 11 7 17 1 20 -8 4z"/>
<path d="M7150 7761 c0 -6 5 -13 10 -16 6 -3 10 1 10 9 0 9 -4 16 -10 16 -5 0
-10 -4 -10 -9z"/>
<path d="M4899 7603 c-13 -17 -13 -17 6 -3 11 8 22 16 24 17 2 2 0 3 -6 3 -6
0 -17 -8 -24 -17z"/>
<path d="M5610 7611 c0 -6 4 -13 10 -16 6 -3 7 1 4 9 -7 18 -14 21 -14 7z"/>
<path d="M1440 7476 c0 -2 7 -7 16 -10 8 -3 12 -2 9 4 -6 10 -25 14 -25 6z"/>
<path d="M4950 7409 c0 -5 -4 -8 -9 -4 -5 3 -12 1 -15 -4 -8 -13 22 -7 36 7 9
9 9 12 0 12 -7 0 -12 -5 -12 -11z"/>
<path d="M4634 7379 c-9 -16 2 -22 21 -11 15 8 16 10 1 15 -8 3 -18 2 -22 -4z"/>
<path d="M1445 7289 c-4 -6 -5 -12 -2 -15 2 -3 7 2 10 11 7 17 1 20 -8 4z"/>
<path d="M6925 7080 c-3 -5 -1 -10 4 -10 6 0 11 5 11 10 0 6 -2 10 -4 10 -3 0
-8 -4 -11 -10z"/>
<path d="M7400 7039 c0 -5 5 -7 10 -4 6 3 10 8 10 11 0 2 -4 4 -10 4 -5 0 -10
-5 -10 -11z"/>
<path d="M1457 6915 c-4 -8 -2 -17 4 -20 5 -4 6 -11 3 -17 -5 -7 -2 -8 5 -3 9
5 9 11 3 17 -6 6 -8 17 -5 24 3 8 3 14 0 14 -3 0 -7 -7 -10 -15z"/>
<path d="M5734 6778 c-3 -4 -2 -12 1 -18 3 -5 -3 -10 -14 -10 -19 0 -26 -11
-22 -34 1 -5 -8 -6 -21 -3 -22 6 -22 5 -4 -8 17 -13 18 -15 3 -15 -9 0 -17 -5
-17 -11 0 -6 -7 -9 -15 -5 -8 3 -15 1 -15 -3 0 -5 6 -12 13 -14 6 -3 2 -6 -11
-6 -16 -1 -21 -5 -16 -13 6 -10 4 -10 -8 0 -14 11 -16 10 -14 -13 3 -20 1 -23
-10 -14 -11 9 -14 8 -14 0 0 -7 -5 -9 -12 -5 -8 5 -9 2 -5 -9 3 -10 3 -17 -1
-18 -46 -5 -72 -16 -72 -32 0 -9 -11 -12 -32 -11 -31 2 -32 1 -14 -12 19 -14
19 -14 -2 -14 -33 0 -36 -1 -50 -21 -8 -11 -25 -19 -42 -19 -19 0 -30 -6 -32
-17 -3 -15 -15 -19 -85 -25 -7 -1 -10 -5 -7 -10 3 -5 10 -5 16 -2 6 4 8 3 5
-3 -4 -6 -18 -9 -32 -8 -14 2 -25 -1 -25 -7 0 -5 -10 -8 -22 -6 -17 2 -23 -2
-22 -14 1 -10 -5 -18 -13 -18 -8 0 -11 5 -8 13 4 6 0 4 -8 -6 -10 -12 -17 -15
-22 -7 -5 8 -11 5 -21 -7 -8 -11 -13 -13 -14 -5 0 17 -17 15 -17 -2 0 -8 3
-15 6 -14 32 3 61 -4 55 -14 -5 -8 -3 -8 7 -2 21 13 231 14 248 0 11 -8 13 -8
7 2 -4 7 -1 12 9 12 9 0 13 -5 10 -11 -4 -6 3 -5 14 3 18 11 23 11 31 -2 5 -8
10 -10 10 -4 0 7 16 11 39 11 22 -1 38 -4 35 -8 -5 -9 17 -6 34 4 7 5 12 3 12
-4 0 -9 3 -9 14 0 11 9 15 8 20 -4 3 -8 9 -15 13 -14 4 1 10 0 13 -1 3 -1 28
-4 55 -5 67 -4 67 -4 62 -12 -9 -14 18 -29 49 -27 27 1 31 -2 29 -21 -2 -18 1
-22 17 -17 15 4 19 0 16 -14 -2 -14 2 -18 19 -16 12 2 24 -2 28 -8 3 -5 1 -10
-4 -10 -6 0 -11 -4 -11 -10 0 -12 22 -9 32 5 4 6 8 -2 8 -16 0 -15 7 -30 16
-33 8 -3 12 -10 9 -16 -3 -5 -1 -10 4 -10 6 0 10 -3 10 -7 -3 -21 2 -34 11
-28 6 4 7 12 4 18 -4 7 -3 8 2 4 5 -5 10 -23 12 -40 1 -18 3 -38 4 -44 1 -7 8
-13 17 -13 12 0 16 -9 15 -32 -1 -20 6 -39 16 -48 9 -8 16 -27 16 -42 -1 -18
4 -28 16 -31 12 -3 16 -11 12 -21 -3 -9 -2 -16 4 -16 5 0 10 -6 9 -12 -1 -33
4 -49 13 -43 6 3 10 -2 10 -11 0 -10 8 -27 18 -38 14 -18 15 -19 0 -8 -14 11
-16 11 -13 -5 2 -10 4 -20 5 -23 1 -3 2 -9 1 -13 -1 -5 3 -6 9 -2 6 3 8 11 5
16 -4 5 -2 9 3 9 8 0 10 -13 15 -87 0 -12 3 -21 7 -21 19 2 26 -5 28 -29 1
-16 9 -33 18 -40 8 -6 17 -26 19 -45 2 -18 4 -37 4 -42 1 -5 7 -4 14 2 10 9
13 3 14 -31 1 -57 2 -57 14 -57 5 0 8 4 4 9 -3 5 -1 12 4 15 11 7 9 -13 -3
-33 -6 -10 -5 -12 2 -7 7 4 13 1 13 -6 1 -7 2 -28 4 -46 3 -38 10 -49 19 -27
4 11 2 14 -6 9 -7 -5 -8 -3 -4 5 15 23 22 1 28 -76 1 -13 6 -23 11 -23 4 0 5
-5 1 -12 -4 -7 -3 -8 4 -4 6 4 8 14 5 24 -3 9 -3 14 2 10 8 -7 12 -32 14 -88
1 -20 3 -22 11 -10 5 8 10 13 11 10 0 -3 2 -13 4 -22 2 -10 -2 -21 -7 -25 -6
-3 -8 -1 -5 4 5 7 -14 10 -52 9 -33 0 -57 -4 -54 -8 2 -5 0 -8 -6 -8 -5 0 -12
4 -15 9 -4 5 -14 8 -24 6 -9 -2 -21 -4 -25 -4 -5 -1 -6 -5 -2 -10 3 -5 1 -13
-5 -16 -6 -4 -10 -3 -9 2 4 22 -3 31 -25 29 -13 0 -22 -4 -19 -8 2 -5 -1 -8
-6 -8 -6 0 -11 4 -11 9 0 5 -11 8 -24 7 -13 0 -22 -4 -19 -8 2 -5 -1 -8 -6 -8
-6 0 -11 4 -11 9 0 5 -11 8 -24 7 -13 0 -22 -4 -19 -8 2 -5 -1 -8 -6 -8 -6 0
-11 4 -11 9 0 5 -11 8 -24 7 -13 0 -22 -4 -19 -8 2 -5 -1 -8 -6 -8 -6 0 -11 4
-11 8 0 5 -13 9 -30 9 -16 0 -27 -5 -23 -10 3 -6 1 -7 -5 -3 -17 10 -102 14
-96 4 3 -4 1 -8 -5 -8 -5 0 -12 4 -15 8 -6 10 -57 9 -74 -2 -7 -4 -12 -2 -12
3 0 6 -4 11 -10 11 -5 0 -7 -8 -4 -17 5 -16 4 -16 -5 -2 -6 9 -20 15 -33 13
-13 -1 -27 -3 -31 -3 -5 -1 -6 -5 -2 -10 3 -5 1 -13 -5 -16 -6 -4 -10 -3 -9 2
4 22 -3 31 -25 29 -13 0 -22 -4 -19 -8 2 -5 -1 -8 -6 -8 -6 0 -11 4 -11 9 0 5
-11 8 -24 7 -13 0 -22 -4 -19 -8 2 -5 -1 -8 -6 -8 -6 0 -11 4 -11 8 0 5 -13 9
-30 9 -16 0 -27 -5 -23 -10 3 -6 1 -7 -5 -3 -17 10 -102 14 -96 4 3 -4 1 -8
-5 -8 -5 0 -12 4 -15 9 -4 5 -14 8 -24 6 -9 -2 -21 -4 -25 -4 -5 -1 -6 -5 -2
-10 3 -5 1 -13 -5 -16 -6 -4 -10 -3 -9 2 4 22 -3 31 -25 29 -13 0 -22 -4 -19
-8 2 -5 -1 -8 -6 -8 -6 0 -11 4 -11 9 0 5 -11 8 -24 7 -13 0 -22 -4 -19 -8 2
-5 -1 -8 -6 -8 -6 0 -11 4 -11 9 0 5 -11 8 -24 7 -13 0 -22 -4 -19 -8 2 -5 -1
-8 -6 -8 -6 0 -11 4 -11 9 0 5 -11 8 -24 7 -13 0 -22 -4 -19 -8 2 -5 -1 -8 -6
-8 -6 0 -11 4 -11 8 0 5 -13 9 -30 9 -16 0 -27 -5 -23 -10 3 -6 1 -7 -5 -3
-17 10 -102 14 -96 4 3 -4 1 -8 -5 -8 -5 0 -12 4 -15 8 -6 10 -57 9 -74 -2 -7
-4 -12 -2 -12 3 0 6 -4 11 -10 11 -5 0 -7 -8 -4 -17 5 -16 4 -16 -5 -2 -6 9
-20 15 -33 13 -13 -1 -27 -3 -31 -3 -5 -1 -6 -5 -2 -10 3 -5 1 -13 -5 -16 -6
-4 -10 -3 -9 2 4 22 -3 31 -25 29 -13 0 -22 -4 -19 -8 2 -5 -1 -8 -6 -8 -6 0
-11 4 -11 9 0 5 -11 8 -24 7 -13 0 -22 -4 -19 -8 2 -5 -1 -8 -6 -8 -6 0 -11 4
-11 8 0 5 -13 9 -30 9 -16 0 -27 -5 -23 -10 3 -6 1 -7 -5 -3 -17 10 -102 14
-96 4 3 -4 1 -8 -5 -8 -5 0 -12 4 -15 9 -4 5 -14 8 -24 6 -9 -2 -21 -4 -25 -4
-5 -1 -6 -5 -2 -10 3 -5 1 -13 -5 -16 -6 -4 -10 -3 -9 2 4 22 -3 31 -25 29
-13 0 -22 -4 -19 -8 2 -5 -1 -8 -6 -8 -6 0 -11 4 -11 9 0 5 -11 8 -24 7 -13 0
-22 -4 -19 -8 2 -5 -1 -8 -6 -8 -6 0 -11 4 -11 9 0 5 -11 8 -24 7 -13 0 -22
-4 -19 -8 2 -5 -1 -8 -6 -8 -6 0 -11 4 -11 9 0 5 -11 8 -24 7 -13 0 -22 -4
-19 -8 2 -5 -1 -8 -6 -8 -6 0 -11 4 -11 8 0 5 -13 9 -30 9 -16 0 -27 -5 -23
-10 3 -6 1 -7 -5 -3 -17 10 -102 14 -96 4 6 -10 -10 -11 -20 -1 -4 5 -28 8
-52 8 -32 1 -43 -3 -40 -12 3 -7 1 -15 -5 -18 -5 -4 -9 -3 -8 2 4 22 -3 31
-25 29 -13 0 -22 -4 -19 -8 2 -5 -1 -8 -6 -8 -6 0 -11 5 -11 10 0 6 -4 10 -9
10 -5 0 -7 -10 -5 -22 4 -22 4 -22 -5 -2 -6 14 -17 20 -33 18 -12 -1 -27 -3
-31 -3 -5 -1 -6 -5 -2 -10 3 -5 1 -13 -5 -16 -6 -4 -10 -3 -9 2 4 22 -3 31
-25 29 -13 0 -22 -4 -19 -8 2 -5 -1 -8 -6 -8 -6 0 -11 5 -11 11 0 8 -6 7 -17
-2 -9 -8 -14 -9 -11 -4 4 6 -2 12 -13 12 -10 1 -19 -3 -19 -9 0 -6 -7 -5 -17
3 -15 12 -16 12 -10 -3 3 -10 2 -20 -4 -23 -5 -4 -9 -3 -8 2 4 22 -3 31 -25
29 -13 0 -22 -4 -19 -8 2 -5 -1 -8 -6 -8 -6 0 -11 5 -11 10 0 6 -4 10 -10 10
-5 0 -7 -6 -4 -14 3 -8 1 -17 -4 -20 -5 -3 -9 2 -8 11 1 12 -6 17 -21 16 -41
-1 -44 -3 -38 -15 4 -7 1 -6 -7 3 -13 15 -61 22 -52 7 3 -4 0 -8 -5 -8 -6 0
-11 5 -11 11 0 8 -6 7 -17 -2 -9 -8 -14 -9 -10 -3 4 7 -7 10 -29 10 -23 -1
-33 -5 -30 -13 3 -7 1 -15 -5 -18 -5 -4 -9 -3 -8 2 4 22 -3 31 -25 29 -13 0
-22 -4 -19 -8 2 -5 -1 -8 -6 -8 -6 0 -11 5 -11 10 0 6 -4 10 -9 10 -5 0 -7
-10 -5 -22 4 -22 4 -22 -5 -2 -6 14 -17 20 -33 18 -12 -1 -27 -3 -31 -3 -5 -1
-6 -5 -2 -10 3 -5 1 -13 -5 -16 -6 -4 -10 -3 -9 2 4 22 -3 31 -25 29 -13 0
-22 -4 -19 -8 2 -5 -1 -8 -6 -8 -6 0 -11 5 -11 11 0 8 -6 7 -17 -2 -9 -8 -14
-9 -11 -4 4 6 -2 12 -13 12 -10 1 -19 -3 -19 -9 0 -6 -7 -5 -17 3 -15 12 -16
12 -10 -3 3 -10 2 -20 -4 -23 -5 -4 -9 -3 -8 2 4 22 -3 31 -25 29 -13 0 -22
-4 -19 -8 2 -5 -1 -8 -6 -8 -6 0 -11 5 -11 10 0 6 -4 10 -9 10 -5 0 -7 -10 -5
-22 4 -22 4 -22 -5 -2 -7 16 -17 20 -47 18 -22 -1 -46 -3 -54 -5 -9 -3 -14 2
-11 11 2 8 4 24 6 35 1 11 3 24 4 28 0 5 6 5 11 2 9 -5 15 15 11 38 0 4 5 7
11 7 10 0 9 3 -1 9 -11 7 -9 11 8 20 15 9 21 21 21 47 0 19 4 33 9 30 11 -7
23 19 27 59 5 43 9 64 17 71 3 4 5 -3 2 -14 -2 -12 0 -24 4 -26 6 -4 11 27 14
82 0 7 6 11 13 8 20 -8 26 11 13 35 -6 12 -7 19 -1 15 5 -3 12 1 16 9 3 8 1
15 -4 15 -5 0 -6 8 -3 17 4 11 8 13 11 5 2 -7 8 -9 13 -6 6 3 5 12 -3 22 -10
12 -10 14 0 8 11 -7 17 5 13 28 -1 5 7 15 18 22 12 9 17 21 14 34 -3 12 0 20
7 20 10 0 10 3 1 14 -8 10 -9 16 -1 21 5 3 10 0 11 -7 1 -21 22 34 26 67 2 17
4 35 5 42 1 6 7 9 14 6 9 -3 13 7 12 37 0 42 5 55 25 55 7 0 11 12 11 27 -1
19 5 29 19 34 19 6 19 7 2 16 -10 6 -39 12 -64 15 -25 2 -52 6 -60 8 -7 3 -21
0 -29 -7 -9 -7 -13 -8 -10 -3 13 22 -9 34 -65 36 -32 1 -60 6 -63 11 -3 5 -10
6 -15 3 -5 -3 -6 0 -3 8 3 8 -1 14 -10 14 -8 0 -12 -5 -9 -11 4 -6 -1 -5 -10
2 -9 8 -21 11 -26 8 -5 -4 -12 -3 -15 2 -2 4 -23 8 -45 7 -22 -1 -37 3 -34 8
3 4 10 6 17 4 6 -2 20 -1 31 3 14 5 7 8 -22 8 -24 0 -44 -3 -44 -9 -1 -5 -3
-13 -4 -19 -1 -5 -3 -17 -4 -26 0 -8 -6 -12 -11 -9 -6 4 -8 10 -5 15 3 5 2 11
-3 14 -5 3 -9 -7 -9 -22 -1 -78 -4 -97 -12 -83 -12 18 -23 -1 -26 -43 -2 -38
-14 -68 -25 -61 -4 2 -8 -7 -9 -20 -3 -49 -4 -53 -18 -48 -13 5 -15 -1 -16
-44 0 -20 -7 -27 -28 -25 -3 1 -5 -13 -4 -29 1 -16 -2 -32 -7 -35 -5 -3 -6
-15 -2 -27 6 -19 5 -20 -10 -8 -18 15 -18 15 -18 -31 -1 -37 -17 -65 -28 -48
-4 6 -8 -8 -9 -32 -2 -24 -3 -49 -4 -55 0 -12 -10 -17 -28 -15 -3 1 -5 -12 -4
-29 1 -16 -3 -29 -9 -29 -6 0 -4 -5 4 -10 12 -8 11 -10 -7 -10 -12 0 -25 -5
-29 -12 -4 -6 -3 -8 4 -4 7 4 10 -1 9 -14 -1 -11 -4 -20 -8 -20 -4 0 -5 -9 -2
-20 3 -12 0 -20 -6 -20 -7 0 -9 5 -6 10 3 6 1 10 -4 10 -15 0 -14 -13 2 -29
10 -10 8 -11 -7 -5 -13 5 -17 4 -12 -4 4 -6 2 -21 -4 -32 -8 -15 -8 -20 2 -21
7 0 4 -4 -7 -8 -20 -8 -22 -11 -24 -56 -1 -18 -7 -25 -22 -25 -11 0 -17 -5
-14 -10 4 -6 10 -8 15 -5 5 3 12 1 15 -5 4 -6 3 -10 -2 -9 -17 3 -33 -1 -32
-8 5 -32 -3 -63 -16 -63 -14 0 -18 -11 -18 -53 0 -11 -5 -16 -13 -13 -7 3 -16
0 -20 -6 -4 -7 -3 -8 4 -4 7 4 12 3 12 -3 0 -5 -5 -13 -11 -16 -6 -4 -8 -13
-5 -21 3 -7 -4 -18 -14 -24 -11 -6 -20 -17 -20 -25 0 -9 -6 -12 -15 -9 -13 6
-20 -6 -16 -28 0 -5 -11 -8 -27 -9 -15 0 -21 -3 -14 -6 21 -8 13 -23 -13 -23
-14 0 -24 -3 -24 -7 3 -21 -3 -31 -23 -37 -18 -5 -20 -8 -9 -15 17 -11 -3 -26
-21 -15 -6 4 -8 3 -4 -4 3 -5 3 -12 -1 -15 -5 -2 -1 -2 7 0 11 2 11 0 -2 -11
-10 -7 -18 -20 -18 -29 0 -9 -5 -19 -12 -23 -7 -4 -8 -3 -4 4 4 7 2 12 -3 12
-10 0 -14 -13 -14 -52 0 -9 -6 -19 -14 -22 -11 -5 -13 0 -8 17 5 17 4 19 -4 6
-6 -9 -9 -26 -6 -38 3 -14 -1 -21 -13 -22 -15 0 -15 -1 1 -7 16 -7 16 -9 1
-27 -16 -20 -16 -20 -9 0 4 14 3 17 -5 9 -6 -6 -11 -27 -12 -48 -1 -20 -6 -40
-11 -43 -6 -3 -7 -2 -4 4 3 5 0 10 -8 10 -18 0 -15 -20 5 -29 12 -5 11 -7 -4
-7 -12 -1 -16 -6 -12 -16 3 -8 -2 -19 -12 -24 -9 -6 -12 -11 -6 -11 13 0 14
-60 1 -60 -4 0 -7 7 -5 16 2 10 -1 19 -7 20 -6 3 -10 -17 -9 -46 1 -37 -3 -53
-15 -60 -10 -5 -17 -24 -18 -52 -1 -24 -4 -54 -7 -67 -3 -14 0 -31 7 -39 10
-13 8 -14 -11 -8 -28 9 -26 -13 3 -32 18 -11 17 -12 -10 -7 -16 3 -25 3 -18
-1 8 -3 9 -13 4 -27 -4 -12 -7 -35 -6 -52 1 -16 -3 -38 -7 -47 -5 -11 -5 -18
1 -18 5 0 9 -9 8 -20 -1 -19 -10 -24 -30 -21 -5 1 -6 -3 -2 -9 3 -5 13 -10 21
-10 17 0 18 -12 3 -27 -7 -7 -7 -13 0 -17 15 -9 2 -36 -18 -36 -14 0 -14 -2
-1 -10 8 -5 10 -10 5 -10 -6 0 -11 -9 -12 -20 -1 -11 2 -18 7 -15 5 3 12 1 15
-5 4 -6 1 -9 -6 -8 -6 2 -14 -3 -17 -11 -3 -8 0 -11 7 -7 6 4 11 2 11 -3 0 -6
-4 -11 -8 -11 -4 0 -8 -11 -8 -25 0 -19 4 -24 16 -20 13 4 13 3 -1 -7 -22 -18
-20 -164 2 -161 11 2 15 -5 13 -26 -3 -47 7 -81 25 -82 12 0 11 -2 -4 -9 -11
-5 -14 -9 -7 -9 7 -1 20 -8 29 -16 8 -8 18 -13 22 -10 5 2 7 -6 6 -19 -2 -13
1 -29 6 -37 5 -8 9 -9 9 -4 0 6 7 -1 15 -15 7 -14 19 -25 27 -25 7 0 13 -7 13
-15 0 -8 10 -17 23 -20 13 -3 23 -8 23 -12 -3 -27 0 -32 8 -19 7 11 11 10 20
-6 5 -11 7 -24 3 -28 -4 -5 -2 -5 5 -1 7 4 9 14 6 23 -4 11 -3 14 5 9 7 -4 12
-17 12 -29 0 -16 3 -18 9 -8 5 8 11 9 15 3 3 -5 17 -8 30 -7 18 2 23 -1 19
-11 -4 -11 7 -14 50 -14 40 0 56 -4 61 -15 3 -8 1 -15 -5 -15 -6 0 -7 -5 -3
-11 3 -6 6 -40 6 -75 0 -45 4 -62 12 -57 8 5 8 3 0 -8 -17 -20 -17 -289 -1
-289 9 0 9 -2 -1 -8 -6 -5 -11 -20 -10 -35 2 -17 6 -23 12 -17 15 15 26 12 26
-9 0 -10 9 -21 20 -24 11 -3 20 0 20 6 0 8 3 9 8 2 4 -6 23 -11 42 -12 49 -1
50 -2 44 -16 -3 -9 7 -14 33 -15 54 -4 73 -11 73 -29 0 -11 4 -13 13 -6 8 7
22 6 42 -3 17 -7 24 -13 16 -14 -8 0 -11 -3 -7 -8 7 -7 11 -8 37 -11 5 0 7 -7
3 -13 -6 -10 -4 -10 7 -1 16 16 29 17 29 2 0 -5 -5 -7 -10 -4 -5 3 -10 1 -10
-4 0 -10 21 -16 43 -12 11 2 37 -25 31 -31 -2 -3 8 -5 23 -4 16 0 27 -5 26
-11 -3 -13 32 -28 72 -32 8 0 12 -7 9 -14 -4 -11 18 -14 105 -13 60 0 108 3
105 7 -2 4 1 11 7 15 8 4 9 3 5 -4 -9 -15 14 -15 34 -1 13 9 13 10 -2 6 -13
-5 -16 0 -13 26 2 18 4 38 4 45 1 7 6 10 11 7 7 -4 7 -12 2 -18 -13 -18 -9
-40 8 -44 12 -4 12 -3 1 5 -11 8 -11 10 0 15 12 5 12 6 0 6 -10 1 -11 4 -2 15
8 10 9 16 1 21 -5 3 -10 11 -10 16 0 6 4 8 9 5 8 -5 8 15 1 34 -6 15 -4 36 5
42 6 5 5 8 -2 8 -7 0 -13 5 -13 11 0 5 4 8 9 4 10 -6 7 27 -4 45 -3 6 0 10 7
10 10 0 10 2 -1 9 -11 7 -11 9 0 14 12 5 12 6 0 6 -10 1 -11 4 -2 15 8 10 9
16 1 21 -5 3 -10 11 -10 16 0 6 4 8 9 5 5 -4 8 2 6 11 -2 10 -4 18 -5 18 -1 0
-3 12 -5 28 -2 15 0 25 5 22 7 -4 7 16 0 35 -6 15 -4 36 5 42 6 5 5 8 -2 8 -7
0 -13 5 -13 11 0 5 4 8 9 4 10 -6 7 27 -4 45 -3 6 0 10 7 10 10 0 10 2 -1 9
-11 7 -11 9 0 14 12 5 12 6 0 6 -10 1 -11 4 -2 15 8 10 9 16 1 21 -5 3 -10 11
-10 16 0 6 4 8 9 5 10 -7 9 20 -2 30 -4 4 -2 13 3 19 7 9 6 16 -3 24 -11 9
-14 6 -13 -12 1 -12 5 -27 9 -33 4 -7 1 -16 -6 -22 -9 -8 -12 0 -11 34 2 62 3
64 15 64 5 0 7 -4 4 -10 -3 -5 -1 -10 4 -10 14 0 14 13 1 26 -7 7 83 10 268
11 191 0 279 -3 284 -11 6 -8 8 -8 8 0 0 15 302 15 312 0 5 -7 8 -8 8 0 0 15
230 17 230 1 0 -8 2 -9 8 -1 10 15 232 15 232 0 0 -8 2 -8 8 0 10 15 224 15
234 0 6 -8 8 -8 8 0 0 16 150 17 150 1 0 -9 2 -9 8 -1 5 8 72 11 207 12 288 0
327 2 321 19 -3 8 -1 11 4 8 6 -3 10 -1 10 6 0 6 8 3 18 -8 9 -10 13 -13 9 -7
-6 9 -3 13 10 13 60 2 92 8 109 21 17 14 18 13 7 -1 -10 -13 -10 -16 2 -16 8
0 15 5 15 10 0 5 8 6 18 2 38 -15 51 -14 45 3 -4 9 -8 11 -10 5 -3 -7 -11 -9
-19 -6 -24 9 -16 18 16 18 18 1 30 -4 30 -12 0 -7 4 -13 10 -13 5 0 7 6 4 13
-3 8 5 13 20 15 20 1 24 -2 20 -16 -5 -14 -4 -15 5 -2 8 12 40 15 156 16 80 1
145 -2 145 -7 0 -5 5 -9 11 -9 5 0 7 5 4 10 -3 6 1 10 9 10 9 0 16 -7 16 -15
0 -8 4 -15 10 -15 5 0 7 6 5 13 -4 9 17 12 88 12 89 0 94 -1 89 -20 l-4 -20
16 20 c10 11 15 14 11 8 -3 -7 -3 -14 2 -14 14 -3 127 -10 150 -9 12 0 25 -5
29 -12 4 -7 3 -8 -4 -4 -7 4 -19 3 -28 -2 -16 -9 32 -14 143 -15 18 0 34 -6
37 -12 3 -8 -5 -11 -21 -9 -14 1 -22 0 -19 -4 4 -3 28 -7 54 -8 111 -5 122 -7
122 -27 0 -16 3 -17 15 -7 11 9 15 9 15 1 0 -7 5 -9 10 -6 6 4 18 1 27 -7 9
-7 14 -8 11 -3 -4 7 5 11 22 10 15 0 26 -4 23 -8 -3 -5 -12 -6 -22 -2 -13 5
-13 4 -4 -6 7 -7 39 -13 73 -13 56 -1 59 -2 55 -24 -2 -12 0 -20 6 -17 5 4 7
11 4 16 -4 5 1 9 10 9 9 0 13 -4 10 -10 -4 -6 6 -10 22 -10 16 0 35 -6 42 -12
10 -9 12 -9 7 -1 -4 8 2 11 19 9 29 -3 55 -23 31 -23 -8 0 -12 5 -9 11 4 6 -1
5 -10 -3 -9 -7 -17 -14 -17 -16 0 -1 23 -1 51 0 32 0 57 -5 65 -13 8 -8 14 -9
14 -3 0 6 8 11 18 10 10 0 12 -3 5 -6 -26 -10 -12 -21 25 -20 l37 1 1 63 c1
49 -2 63 -12 59 -7 -3 -16 0 -20 6 -4 6 -3 8 3 5 6 -4 17 1 24 10 12 14 11 15
-11 10 -14 -4 -19 -4 -12 -1 6 3 12 13 12 22 0 15 2 15 10 2 8 -12 10 -11 10
8 0 20 4 22 60 22 33 0 62 -1 64 -2 3 -2 15 7 28 18 14 13 32 20 47 18 19 -4
22 -2 12 10 -9 11 -8 15 5 20 9 3 21 3 26 -1 7 -4 8 -1 3 7 -6 9 -2 10 16 5
24 -7 24 -7 4 10 -11 9 -15 14 -8 11 6 -4 14 -2 18 4 4 6 11 8 16 5 5 -4 12 1
15 9 3 8 14 18 25 21 10 4 19 13 19 20 0 8 8 19 18 25 13 9 13 10 1 7 -9 -3
-16 1 -16 8 0 7 8 12 19 10 14 -3 18 2 18 22 0 18 4 24 15 19 10 -3 15 1 15
14 0 10 5 22 10 25 7 5 8 11 1 19 -6 7 -6 18 -1 25 4 8 7 19 6 25 -2 6 -1 8 1
4 8 -14 23 -9 23 7 0 8 -6 15 -12 15 -10 0 -10 2 -1 8 10 6 13 55 12 188 0
253 -1 254 -8 249 -4 -2 -8 2 -8 10 0 8 3 12 7 10 4 -3 7 11 6 30 -1 30 -4 34
-21 28 -18 -5 -18 -4 -6 11 12 14 12 19 2 26 -9 5 -10 9 -2 14 6 4 8 13 4 19
-9 15 -12 31 -14 79 -1 21 -7 34 -13 32 -10 -4 -16 28 -19 94 -1 17 -5 21 -21
16 -15 -4 -17 -3 -7 4 10 7 10 11 1 17 -6 4 -9 13 -6 20 2 7 1 29 -4 48 -5 24
-4 37 3 40 6 2 4 6 -5 10 -13 4 -16 1 -13 -14 2 -10 0 -19 -4 -19 -4 0 -8 14
-9 32 0 18 -9 38 -19 47 -16 12 -16 13 0 8 19 -7 21 1 7 23 -6 10 -10 11 -10
3 0 -7 -4 -13 -8 -13 -7 0 -12 32 -15 87 0 7 -4 10 -9 7 -5 -4 -7 -13 -4 -23
4 -11 2 -10 -9 4 -10 12 -12 21 -5 23 5 2 7 9 3 15 -8 12 -9 18 -12 38 -1 8
-6 8 -16 -1 -10 -8 -15 -9 -15 -2 0 6 8 16 18 22 16 11 16 11 -2 6 -15 -5 -18
-2 -14 17 3 15 0 24 -8 24 -7 0 -10 -5 -7 -10 3 -6 1 -7 -5 -3 -7 4 -12 18
-12 32 0 13 -3 23 -7 23 -20 -3 -30 2 -31 16 -1 8 -3 22 -4 30 -1 8 -5 12 -10
9 -4 -3 -13 6 -20 20 -9 22 -14 24 -26 13 -13 -9 -14 -9 -8 1 4 7 2 12 -6 12
-11 0 -10 2 0 9 11 7 10 10 -3 15 -9 3 -22 3 -27 -1 -7 -4 -8 -1 -3 7 6 10 4
12 -8 7 -9 -3 -19 -1 -23 5 -4 6 -3 8 4 4 6 -3 13 -2 17 4 3 5 -3 10 -14 10
-22 0 -54 38 -44 53 3 5 -3 4 -14 -1 -16 -9 -19 -7 -20 16 -4 54 -10 76 -24
81 -8 4 -14 19 -13 38 0 18 -3 30 -8 27 -11 -7 -10 10 2 24 7 9 7 9 -2 2 -19
-16 -26 -12 -23 15 1 14 -1 28 -6 31 -4 2 -6 11 -2 20 3 9 0 14 -8 12 -8 -2
-13 4 -13 14 1 10 -3 15 -8 11 -7 -4 -9 6 -6 26 4 27 2 32 -12 28 -12 -3 -17
4 -18 32 -4 51 -11 71 -27 71 -8 0 -12 6 -9 14 7 18 -14 58 -27 51 -5 -4 -9
-1 -9 4 0 6 6 11 13 11 9 0 9 2 1 8 -7 4 -14 21 -15 37 -2 17 -12 39 -22 50
-11 12 -16 28 -12 42 4 18 1 23 -14 23 -13 0 -19 7 -19 23 0 28 -9 68 -18 76
-4 3 -4 -2 -1 -11 3 -10 2 -20 -2 -23 -5 -3 -8 9 -7 25 1 17 -1 30 -5 30 -4 0
-10 7 -13 16 -3 8 -2 13 2 10 5 -3 9 1 9 9 0 8 -2 13 -5 10 -10 -9 -32 25 -32
49 0 14 -5 26 -11 26 -8 0 -8 4 0 14 10 12 8 14 -11 9 -18 -4 -20 -3 -8 6 10
7 11 11 3 11 -7 0 -12 3 -12 8 4 23 -2 52 -12 52 -5 0 -7 -6 -3 -12 4 -7 3
-10 -1 -6 -7 7 -12 29 -18 81 -1 10 -8 22 -16 26 -8 5 -16 22 -18 38 -7 55
-11 68 -22 66 -6 -2 -12 8 -12 22 -1 14 -2 31 -3 38 -1 6 -9 18 -18 25 -10 7
-18 27 -19 45 0 18 -3 26 -6 20 -2 -7 -9 -13 -14 -13 -6 0 -7 5 -4 11 4 5 -1
20 -12 31 -10 12 -12 18 -5 14 6 -4 12 -2 12 3 0 6 -6 11 -14 11 -16 0 -24 16
-21 47 1 12 -2 20 -6 17 -4 -2 -9 -1 -12 3 -2 5 -2 3 -1 -4 2 -7 0 -14 -4 -17
-4 -3 -8 3 -9 12 -3 35 -12 75 -19 81 -4 3 -5 -1 -2 -10 4 -9 1 -16 -7 -16 -7
0 -11 6 -8 13 2 7 -5 15 -16 19 -12 3 -18 11 -15 17 4 6 10 5 16 -3 8 -11 9
-11 5 1 -2 8 -10 15 -18 15 -8 0 -14 5 -14 12 0 6 -4 15 -9 20 -5 4 -6 3 -2
-4 3 -6 2 -14 -4 -18 -5 -3 -10 3 -10 15 0 14 -5 20 -16 18 -10 -2 -19 4 -21
12 -4 12 -3 12 5 1 6 -8 12 -9 16 -3 6 10 -30 28 -47 24 -5 -1 -6 2 -2 8 3 6
12 7 18 4 9 -5 9 -4 1 5 -6 7 -21 13 -33 14 -11 1 -21 5 -21 10 0 4 -4 5 -10
2 -6 -3 -7 1 -4 9 4 12 0 16 -16 16 -15 0 -20 5 -17 14 3 8 -1 17 -10 20 -11
5 -14 2 -9 -11 6 -17 5 -17 -8 0 -7 10 -20 16 -27 15 -8 -2 -13 5 -12 15 0 12
-4 16 -13 13 -7 -3 -16 -1 -20 5 -3 6 -13 8 -23 5 -13 -5 -13 -4 2 8 17 13 16
14 -3 19 -13 3 -18 1 -13 -6 4 -8 1 -7 -9 1 -9 7 -20 12 -24 11 -21 -3 -26 2
-14 16 7 8 9 15 5 15 -4 0 -14 -8 -21 -17 -13 -17 -13 -17 -14 0 0 9 -3 16 -7
16 -28 -5 -73 3 -73 12 0 5 5 7 12 3 7 -5 8 -3 4 5 -5 7 -14 10 -22 7 -8 -3
-14 -2 -14 3 0 10 -29 10 -36 -1z m-107 -465 c0 -9 -4 -10 -12 -3 -7 5 -15 7
-18 3 -4 -3 -7 -1 -7 5 0 6 8 10 18 9 10 0 19 -7 19 -14z m823 -164 c0 -6 -4
-7 -10 -4 -5 3 -10 11 -10 16 0 6 5 7 10 4 6 -3 10 -11 10 -16z m37 -84 c0 -8
-4 -15 -9 -15 -10 0 -11 14 -1 23 9 10 10 9 10 -8z m-3619 -360 c-3 -3 -9 2
-12 12 -6 14 -5 15 5 6 7 -7 10 -15 7 -18z m-527 -38 c-10 -9 -11 -8 -5 6 3
10 9 15 12 12 3 -3 0 -11 -7 -18z m499 -53 c0 -8 -19 -13 -24 -6 -3 5 1 9 9 9
8 0 15 -2 15 -3z m-555 -114 c-3 -5 -12 -10 -18 -10 -7 0 -6 4 3 10 19 12 23
12 15 0z m4445 -45 c0 -5 -5 -3 -10 5 -5 8 -10 20 -10 25 0 6 5 3 10 -5 5 -8
10 -19 10 -25z m-3960 -15 c0 -5 -2 -10 -4 -10 -3 0 -8 5 -11 10 -3 6 -1 10 4
10 6 0 11 -4 11 -10z m4039 -163 c0 -9 -2 -8 -6 1 -2 6 -10 9 -15 6 -7 -4 -8
-2 -4 5 9 13 26 5 25 -12z m-4114 -7 c-3 -5 -12 -10 -18 -10 -7 0 -6 4 3 10
19 12 23 12 15 0z m146 -273 c-10 -9 -11 -8 -5 6 3 10 9 15 12 12 3 -3 0 -11
-7 -18z m322 2 c-8 -8 -13 -7 -18 2 -5 8 -4 10 3 5 7 -4 12 -2 12 5 0 7 3 9 7
6 4 -4 2 -12 -4 -18z m318 -2 c-10 -9 -11 -8 -5 6 3 10 9 15 12 12 3 -3 0 -11
-7 -18z m322 2 c-8 -8 -13 -7 -18 2 -5 8 -4 10 3 5 7 -4 12 -2 12 5 0 7 3 9 7
6 4 -4 2 -12 -4 -18z m-1153 5 c0 -8 -19 -13 -24 -6 -3 5 1 9 9 9 8 0 15 -2
15 -3z m130 2 c0 -2 -7 -7 -16 -10 -8 -3 -12 -2 -9 4 6 10 25 14 25 6z m320 0
c0 -2 -7 -7 -16 -10 -8 -3 -12 -2 -9 4 6 10 25 14 25 6z m165 -6 c3 -6 -1 -7
-9 -4 -18 7 -21 14 -7 14 6 0 13 -4 16 -10z m155 6 c0 -2 -7 -7 -16 -10 -8 -3
-12 -2 -9 4 6 10 25 14 25 6z m320 0 c0 -2 -7 -7 -16 -10 -8 -3 -12 -2 -9 4 6
10 25 14 25 6z m110 -6 c0 -5 -5 -10 -11 -10 -5 0 -7 5 -4 10 3 6 8 10 11 10
2 0 4 -4 4 -10z m60 6 c0 -2 -7 -7 -16 -10 -8 -3 -12 -2 -9 4 6 10 25 14 25 6z
m40 0 c0 -2 -7 -7 -16 -10 -8 -3 -12 -2 -9 4 6 10 25 14 25 6z m67 -2 c-3 -3
-12 -4 -19 -1 -8 3 -5 6 6 6 11 1 17 -2 13 -5z m63 2 c0 -3 -4 -8 -10 -11 -5
-3 -10 -1 -10 4 0 6 5 11 10 11 6 0 10 -2 10 -4z m65 -6 c3 -6 -1 -7 -9 -4
-18 7 -21 14 -7 14 6 0 13 -4 16 -10z m55 0 c0 -5 -2 -10 -4 -10 -3 0 -8 5
-11 10 -3 6 -1 10 4 10 6 0 11 -4 11 -10z m60 6 c0 -2 -7 -7 -16 -10 -8 -3
-12 -2 -9 4 6 10 25 14 25 6z m70 -6 c0 -5 -5 -10 -11 -10 -5 0 -7 5 -4 10 3
6 8 10 11 10 2 0 4 -4 4 -10z m60 6 c0 -2 -7 -7 -16 -10 -8 -3 -12 -2 -9 4 6
10 25 14 25 6z m40 0 c0 -2 -7 -7 -16 -10 -8 -3 -12 -2 -9 4 6 10 25 14 25 6z
m67 -2 c-3 -3 -12 -4 -19 -1 -8 3 -5 6 6 6 11 1 17 -2 13 -5z m123 2 c0 -2 -7
-7 -16 -10 -8 -3 -12 -2 -9 4 6 10 25 14 25 6z m150 0 c0 -3 -4 -8 -10 -11 -5
-3 -10 -1 -10 4 0 6 5 11 10 11 6 0 10 -2 10 -4z m40 -6 c0 -5 -5 -10 -11 -10
-5 0 -7 5 -4 10 3 6 8 10 11 10 2 0 4 -4 4 -10z m60 6 c0 -2 -7 -7 -16 -10 -8
-3 -12 -2 -9 4 6 10 25 14 25 6z m40 0 c0 -2 -7 -7 -16 -10 -8 -3 -12 -2 -9 4
6 10 25 14 25 6z m67 -2 c-3 -3 -12 -4 -19 -1 -8 3 -5 6 6 6 11 1 17 -2 13 -5z
m63 -4 c0 -5 -2 -10 -4 -10 -3 0 -8 5 -11 10 -3 6 -1 10 4 10 6 0 11 -4 11
-10z m60 6 c0 -2 -7 -7 -16 -10 -8 -3 -12 -2 -9 4 6 10 25 14 25 6z m60 -6 c0
-5 -2 -10 -4 -10 -3 0 -8 5 -11 10 -3 6 -1 10 4 10 6 0 11 -4 11 -10z m60 6
c0 -2 -7 -7 -16 -10 -8 -3 -12 -2 -9 4 6 10 25 14 25 6z m70 -6 c0 -5 -5 -10
-11 -10 -5 0 -7 5 -4 10 3 6 8 10 11 10 2 0 4 -4 4 -10z m60 6 c0 -2 -7 -7
-16 -10 -8 -3 -12 -2 -9 4 6 10 25 14 25 6z m40 0 c0 -2 -7 -7 -16 -10 -8 -3
-12 -2 -9 4 6 10 25 14 25 6z m67 -2 c-3 -3 -12 -4 -19 -1 -8 3 -5 6 6 6 11 1
17 -2 13 -5z m123 2 c0 -2 -7 -7 -16 -10 -8 -3 -12 -2 -9 4 6 10 25 14 25 6z
m150 0 c0 -3 -4 -8 -10 -11 -5 -3 -10 -1 -10 4 0 6 5 11 10 11 6 0 10 -2 10
-4z m40 -6 c0 -5 -5 -10 -11 -10 -5 0 -7 5 -4 10 3 6 8 10 11 10 2 0 4 -4 4
-10z m60 6 c0 -2 -7 -7 -16 -10 -8 -3 -12 -2 -9 4 6 10 25 14 25 6z m40 0 c0
-2 -7 -7 -16 -10 -8 -3 -12 -2 -9 4 6 10 25 14 25 6z m67 -2 c-3 -3 -12 -4
-19 -1 -8 3 -5 6 6 6 11 1 17 -2 13 -5z m63 -4 c0 -5 -2 -10 -4 -10 -3 0 -8 5
-11 10 -3 6 -1 10 4 10 6 0 11 -4 11 -10z m60 6 c0 -2 -7 -7 -16 -10 -8 -3
-12 -2 -9 4 6 10 25 14 25 6z m60 -6 c0 -5 -2 -10 -4 -10 -3 0 -8 5 -11 10 -3
6 -1 10 4 10 6 0 11 -4 11 -10z m60 6 c0 -2 -7 -7 -16 -10 -8 -3 -12 -2 -9 4
6 10 25 14 25 6z m70 -6 c0 -5 -5 -10 -11 -10 -5 0 -7 5 -4 10 3 6 8 10 11 10
2 0 4 -4 4 -10z m60 6 c0 -2 -7 -7 -16 -10 -8 -3 -12 -2 -9 4 6 10 25 14 25 6z
m40 0 c0 -2 -7 -7 -16 -10 -8 -3 -12 -2 -9 4 6 10 25 14 25 6z m-4740 -845 c0
-6 -4 -12 -8 -15 -5 -3 -9 1 -9 9 0 8 4 15 9 15 4 0 8 -4 8 -9z m5158 -55 c12
2 22 0 22 -5 0 -6 -9 -8 -20 -6 -12 2 -18 0 -15 -6 4 -5 10 -7 15 -4 5 3 12 1
15 -5 5 -8 11 -7 21 1 13 11 19 5 15 -15 -1 -5 5 -4 13 4 14 11 16 9 16 -9 0
-11 3 -20 8 -20 26 4 41 -3 36 -16 -4 -10 0 -15 15 -15 19 0 20 -3 10 -21 -8
-15 -8 -19 0 -15 6 4 11 2 11 -4 0 -6 5 -8 13 -4 8 5 7 2 -2 -9 -8 -10 -11
-20 -7 -24 3 -3 6 -1 6 5 0 7 4 12 9 12 5 0 8 -8 6 -17 -1 -10 0 -22 3 -28 4
-5 7 -19 7 -30 0 -11 4 -25 8 -32 4 -6 3 -14 -3 -18 -6 -4 -8 -10 -5 -15 3 -5
1 -12 -5 -15 -8 -5 -8 -11 0 -20 7 -8 7 -15 1 -19 -5 -3 -7 -16 -5 -29 2 -12
2 -16 -2 -9 -3 6 -13 12 -22 12 -15 0 -15 -2 -2 -10 12 -8 12 -10 1 -10 -8 0
-11 -3 -8 -7 4 -3 1 -13 -6 -21 -10 -13 -9 -14 2 -7 10 5 12 4 7 -3 -4 -7 -14
-12 -22 -12 -12 0 -18 -12 -15 -32 1 -6 -7 -7 -61 -8 -18 -1 -20 -3 -8 -10 23
-14 6 -22 -52 -24 -58 -2 -82 -11 -72 -28 4 -7 2 -8 -5 -4 -6 4 -9 12 -6 17 4
5 0 9 -7 10 -12 1 -60 6 -96 11 -7 1 -11 7 -8 15 3 8 -2 13 -14 13 -11 0 -20
6 -20 14 0 7 -9 16 -20 19 -14 4 -20 14 -21 34 0 15 -3 22 -6 16 -8 -20 -23
-15 -23 7 0 11 -4 20 -9 20 -18 0 -21 34 -4 54 10 12 11 15 3 9 -23 -21 -26
-16 -24 55 2 91 3 94 14 87 8 -5 8 -11 1 -19 -8 -9 -6 -18 5 -32 14 -18 15
-18 5 3 -7 13 -7 24 -2 27 5 4 8 17 6 31 -1 14 1 25 6 25 4 0 6 9 4 20 -2 12
0 18 6 15 5 -4 7 -11 4 -16 -4 -5 -1 -9 4 -9 6 0 11 10 11 23 0 28 17 47 36
40 8 -3 14 0 14 6 0 6 7 11 16 11 8 0 13 4 10 9 -3 5 6 9 19 10 50 3 55 5 55
19 0 10 8 13 30 10 17 -3 30 -1 30 4 0 5 8 5 18 0 9 -5 27 -8 40 -6z m-4558
-26 c5 0 7 6 4 14 -4 11 5 14 41 14 35 0 45 -3 41 -13 -3 -9 0 -12 10 -8 8 3
21 0 29 -7 12 -10 15 -9 15 4 0 10 -4 15 -8 12 -4 -2 -14 0 -22 5 -11 7 -9 8
9 6 14 -2 28 -12 32 -23 4 -10 8 -13 8 -6 1 18 21 15 21 -3 0 -9 8 -19 18 -22
9 -4 23 -14 30 -22 8 -10 11 -10 6 -2 -4 9 -2 12 7 9 8 -3 13 -15 11 -26 -2
-12 2 -22 8 -22 6 0 9 4 6 8 -3 5 1 9 7 9 8 0 12 -12 11 -29 -1 -15 2 -28 8
-28 5 0 7 -4 3 -9 -3 -6 1 -14 10 -18 11 -7 15 -28 16 -80 1 -75 -5 -98 -23
-87 -7 4 -8 2 -4 -5 4 -6 12 -9 17 -6 5 4 9 1 9 -4 0 -6 -9 -11 -21 -11 -16 0
-19 -4 -14 -20 6 -18 -3 -25 -28 -21 -4 0 -6 -2 -6 -6 3 -21 -2 -33 -16 -33
-8 0 -15 -5 -15 -11 0 -6 7 -8 16 -5 8 3 13 2 10 -3 -8 -12 -46 -21 -46 -10 0
4 -7 6 -15 3 -12 -5 -13 -10 -4 -20 11 -14 -8 -18 -76 -17 -10 0 -27 -9 -36
-20 -12 -16 -18 -17 -24 -7 -5 9 -4 11 3 6 7 -4 12 -1 12 8 0 12 -5 14 -25 6
-13 -5 -27 -5 -30 -1 -3 5 -20 8 -39 7 -26 -1 -33 2 -31 15 2 8 -3 16 -11 17
-8 1 -21 3 -30 4 -8 1 -25 15 -37 32 -12 17 -28 37 -37 44 -8 8 -9 11 -2 7 7
-4 12 0 12 9 0 14 -10 19 -30 18 -3 0 -5 45 -5 101 0 88 3 102 17 101 11 -1
15 6 13 23 -2 17 2 23 11 19 7 -3 16 -1 19 5 4 5 3 8 -2 7 -4 -2 -8 2 -8 7 0
6 3 9 8 8 7 -3 11 12 8 30 -1 7 22 11 46 8 17 -2 25 16 12 25 -8 4 -9 3 -5 -4
4 -7 2 -12 -4 -12 -7 0 -10 6 -7 13 2 6 12 12 23 12 10 -1 22 4 26 10 5 6 8 5
8 -3 0 -7 4 -11 10 -7 5 3 7 13 4 23 -5 16 -5 16 6 0 6 -10 15 -18 20 -18z
m4425 20 c-3 -5 -12 -10 -18 -10 -7 0 -6 4 3 10 19 12 23 12 15 0z m-4205 -24
c0 -2 -7 -7 -16 -10 -8 -3 -12 -2 -9 4 6 10 25 14 25 6z m5010 -37 c0 -5 -4
-9 -8 -9 -5 0 -9 7 -9 15 0 8 4 12 9 9 4 -3 8 -9 8 -15z m-2134 -2 c4 -4 12
-2 19 3 8 7 12 5 12 -5 0 -8 -4 -12 -8 -9 -4 2 -11 0 -14 -6 -4 -6 -3 -10 2
-9 4 1 22 1 40 0 23 -1 31 -5 27 -15 -3 -8 3 -16 16 -19 11 -3 20 -9 19 -14
-4 -22 2 -32 16 -27 10 4 15 0 15 -11 0 -10 -5 -13 -12 -9 -7 4 -8 3 -4 -4 4
-7 14 -12 22 -12 8 0 14 -2 14 -4 0 -2 3 -13 6 -23 6 -17 6 -17 -8 1 -14 17
-15 17 -15 -13 0 -19 3 -27 8 -19 4 7 11 9 15 5 11 -10 12 -67 2 -61 -9 6 -6
-25 5 -43 4 -6 2 -15 -4 -19 -7 -4 -10 -3 -6 2 3 5 -1 17 -8 27 -12 17 -13 15
-11 -18 3 -29 -2 -42 -20 -57 -13 -12 -21 -28 -19 -40 4 -17 0 -19 -21 -14
-17 5 -23 3 -19 -4 7 -12 -13 -42 -24 -36 -4 3 -23 1 -43 -3 -24 -6 -41 -5
-49 3 -9 8 -9 6 0 -7 8 -9 11 -21 7 -24 -4 -4 -11 -1 -16 7 -9 13 -10 13 -10
0 0 -13 -1 -13 -10 0 -6 9 -10 10 -10 3 0 -15 -62 -14 -72 1 -6 8 -8 8 -8 0 0
-16 -70 -16 -70 0 0 8 -2 8 -8 0 -4 -7 -20 -12 -37 -12 -16 0 -33 5 -37 12 -6
8 -8 8 -8 0 0 -16 -70 -16 -70 0 0 8 -2 8 -8 0 -4 -7 -20 -12 -37 -12 -16 0
-33 5 -37 12 -6 8 -8 7 -8 -1 0 -7 -5 -13 -11 -13 -5 0 -7 6 -3 13 6 10 4 10
-7 0 -7 -7 -17 -13 -22 -13 -4 0 -5 6 -1 13 6 9 5 9 -7 1 -19 -16 -65 -12 -61
5 1 7 -2 10 -8 6 -6 -3 -8 -11 -5 -16 4 -5 1 -9 -4 -9 -6 0 -11 6 -12 13 0 10
-2 10 -6 0 -2 -7 -9 -13 -14 -13 -6 0 -7 6 -3 13 6 9 4 9 -7 1 -18 -14 -52
-14 -61 0 -5 8 -8 7 -8 -1 0 -7 -5 -13 -11 -13 -5 0 -8 4 -4 9 3 5 1 13 -5 16
-6 4 -9 1 -8 -7 2 -7 -4 -13 -12 -13 -8 0 -14 6 -12 13 1 8 -2 11 -8 7 -6 -3
-8 -11 -5 -16 4 -5 1 -9 -4 -9 -6 0 -11 6 -11 13 0 9 -3 8 -9 -2 -5 -7 -14
-10 -20 -7 -6 4 -8 12 -5 18 4 7 2 8 -5 4 -6 -4 -9 -12 -6 -17 4 -5 1 -9 -4
-9 -6 0 -11 6 -12 13 0 10 -2 10 -6 0 -2 -7 -9 -13 -14 -13 -6 0 -7 6 -3 13 6
9 4 9 -7 1 -18 -14 -52 -14 -61 0 -5 8 -8 7 -8 -1 0 -7 -5 -13 -11 -13 -5 0
-8 4 -4 9 3 5 1 13 -5 16 -6 4 -9 1 -8 -7 2 -7 -4 -13 -12 -13 -8 0 -14 6 -12
13 1 8 -2 11 -8 7 -6 -3 -8 -11 -5 -16 9 -13 -9 -11 -24 4 -8 6 -11 7 -8 2 3
-6 -3 -12 -14 -12 -18 -2 -19 0 -7 15 11 15 11 15 -3 5 -9 -7 -20 -9 -24 -5
-5 4 -5 1 -1 -5 4 -7 2 -13 -3 -13 -6 0 -11 6 -11 13 0 8 -3 8 -8 2 -10 -15
-55 -16 -64 -2 -6 9 -8 9 -8 0 0 -15 -62 -14 -72 1 -6 8 -8 8 -8 0 0 -16 -70
-16 -70 0 0 8 -2 8 -8 0 -9 -15 -65 -15 -74 0 -6 8 -8 7 -8 -1 0 -7 -9 -13
-21 -13 -13 0 -18 4 -13 12 5 7 3 8 -7 2 -24 -15 -38 -13 -44 5 -3 12 -16 18
-35 18 -18 0 -27 -4 -23 -11 4 -6 -1 -4 -11 4 -10 8 -26 15 -35 15 -11 0 -16
9 -15 26 0 18 -4 25 -13 22 -7 -3 -10 -10 -6 -16 3 -6 1 -7 -6 -3 -6 4 -9 12
-6 17 4 5 1 9 -6 9 -9 0 -9 3 0 14 9 11 9 16 0 21 -6 4 -15 1 -20 -6 -8 -13
-13 20 -12 69 1 6 -4 12 -9 12 -6 0 -4 7 3 16 12 15 11 16 -11 10 -17 -5 -20
-4 -12 2 8 5 14 13 14 17 0 4 -6 12 -14 17 -10 8 -10 9 2 5 8 -2 14 -10 12
-16 -1 -7 1 -10 6 -7 10 6 9 36 -2 54 -4 7 -2 12 5 12 6 0 9 8 6 20 -3 11 -1
20 5 20 5 0 6 5 3 11 -4 6 2 13 13 16 13 3 18 11 15 19 -3 9 2 14 17 14 11 0
19 4 16 9 -9 14 17 30 51 33 21 1 29 6 26 15 -3 7 0 13 6 13 6 0 11 -6 11 -12
0 -9 3 -10 8 -2 4 6 13 13 19 15 23 7 1522 3 1529 -4z m-2776 -97 c0 -5 -5
-10 -11 -10 -5 0 -7 5 -4 10 3 6 8 10 11 10 2 0 4 -4 4 -10z m-35 -270 c-3 -5
-12 -10 -18 -10 -7 0 -6 4 3 10 19 12 23 12 15 0z m2955 -4 c0 -3 -4 -8 -10
-11 -5 -3 -10 -1 -10 4 0 6 5 11 10 11 6 0 10 -2 10 -4z m1080 -36 c0 -5 -5
-10 -11 -10 -5 0 -7 5 -4 10 3 6 8 10 11 10 2 0 4 -4 4 -10z m-4980 -44 c0 -2
-8 -10 -17 -17 -16 -13 -17 -12 -4 4 13 16 21 21 21 13z m2218 -31 c-3 -3 -9
2 -12 12 -6 14 -5 15 5 6 7 -7 10 -15 7 -18z m2959 10 c0 -8 -4 -12 -9 -9 -5
3 -6 10 -3 15 9 13 12 11 12 -6z m-1417 -3 c0 -5 -7 -9 -15 -9 -8 0 -12 4 -9
9 3 4 9 8 15 8 5 0 9 -4 9 -8z m-3765 -82 c3 -5 1 -10 -4 -10 -6 0 -11 5 -11
10 0 6 2 10 4 10 3 0 8 -4 11 -10z m-9 -45 c-2 -7 0 -17 5 -22 6 -6 5 -14 -3
-21 -11 -9 -14 -3 -13 28 0 21 4 36 8 33 5 -3 6 -11 3 -18z m5644 -419 c0 -3
-4 -8 -10 -11 -5 -3 -10 -1 -10 4 0 6 5 11 10 11 6 0 10 -2 10 -4z m-167 -167
c-8 -28 -12 -23 -11 12 1 17 4 25 8 18 4 -6 5 -20 3 -30z m-4182 -23 c-6 -7
-7 -17 -3 -21 4 -5 2 -5 -5 -2 -9 6 -10 18 -4 45 1 2 6 0 11 -3 8 -5 8 -11 1
-19z m4182 -24 c-5 -11 -7 -11 -14 0 -7 11 -9 10 -9 -1 0 -8 -3 -12 -6 -8 -9
9 3 24 20 24 8 0 12 -6 9 -15z m-4186 -24 c0 -7 2 -19 4 -27 2 -7 0 -15 -6
-17 -5 -2 -10 10 -11 26 -1 17 2 30 6 30 4 0 7 -6 7 -12z m-833 -78 c-6 -6
-10 -3 -10 10 0 13 4 16 10 10 7 -7 7 -13 0 -20z m831 -13 c1 -12 4 -27 8 -33
4 -7 1 -16 -6 -22 -9 -8 -12 1 -12 38 0 27 2 46 5 44 3 -3 5 -15 5 -27z m2
-91 c-3 -7 -1 -18 4 -23 6 -6 5 -14 -3 -21 -11 -9 -13 -5 -12 16 3 41 4 42 10
42 3 0 4 -6 1 -14z m-833 -56 c-6 -6 -10 -3 -10 10 0 13 4 16 10 10 7 -7 7
-13 0 -20z m837 -34 c-6 -7 -7 -17 -3 -21 4 -5 2 -5 -5 -2 -9 6 -10 18 -4 45
1 2 6 0 11 -3 8 -5 8 -11 1 -19z m-4 -48 c0 -7 2 -19 4 -27 2 -7 0 -15 -6 -17
-5 -2 -10 10 -11 26 -1 17 2 30 6 30 4 0 7 -6 7 -12z m-2 -91 c1 -12 4 -27 8
-33 4 -7 1 -16 -6 -22 -9 -8 -12 1 -12 38 0 27 2 46 5 44 3 -3 5 -15 5 -27z
m-55 -151 c0 -2 -8 -10 -17 -17 -16 -13 -17 -12 -4 4 13 16 21 21 21 13z
m-140 -16 c0 -5 -4 -10 -10 -10 -5 0 -10 5 -10 10 0 6 5 10 10 10 6 0 10 -4
10 -10z m60 -1 c0 -4 -11 -6 -24 -5 -13 0 -22 4 -20 8 6 9 44 6 44 -3z m35 -7
c-3 -3 -11 0 -18 7 -9 10 -8 11 6 5 10 -3 15 -9 12 -12z"/>
<path d="M6718 4083 c7 -3 16 -2 19 1 4 3 -2 6 -13 5 -11 0 -14 -3 -6 -6z"/>
<path d="M6515 4020 c3 -5 8 -10 11 -10 2 0 4 5 4 10 0 6 -5 10 -11 10 -5 0
-7 -4 -4 -10z"/>
<path d="M6455 3761 c-3 -5 -2 -12 3 -15 5 -3 9 1 9 9 0 17 -3 19 -12 6z"/>
<path d="M2060 3680 c0 -5 5 -10 11 -10 5 0 7 5 4 10 -3 6 -8 10 -11 10 -2 0
-4 -4 -4 -10z"/>
<path d="M2085 3640 c4 -6 11 -8 16 -5 14 9 11 15 -7 15 -8 0 -12 -5 -9 -10z"/>
<path d="M5276 4018 c3 -5 10 -6 15 -3 13 9 11 12 -6 12 -8 0 -12 -4 -9 -9z"/>
<path d="M3665 3610 c-3 -5 -2 -10 4 -10 5 0 13 5 16 10 3 6 2 10 -4 10 -5 0
-13 -4 -16 -10z"/>
<path d="M3795 3581 c-3 -5 -2 -12 3 -15 5 -3 9 1 9 9 0 17 -3 19 -12 6z"/>
<path d="M2075 6690 c3 -5 8 -10 11 -10 2 0 4 5 4 10 0 6 -5 10 -11 10 -5 0
-7 -4 -4 -10z"/>
<path d="M6026 6663 c-6 -14 -5 -15 5 -6 7 7 10 15 7 18 -3 3 -9 -2 -12 -12z"/>
<path d="M2210 6661 c0 -5 5 -13 10 -16 6 -3 10 -2 10 4 0 5 -4 13 -10 16 -5
3 -10 2 -10 -4z"/>
<path d="M6130 6600 c0 -5 5 -10 11 -10 5 0 7 5 4 10 -3 6 -8 10 -11 10 -2 0
-4 -4 -4 -10z"/>
<path d="M5356 6488 c3 -5 10 -6 15 -3 13 9 11 12 -6 12 -8 0 -12 -4 -9 -9z"/>
<path d="M2986 6447 c3 -10 9 -15 12 -12 3 3 0 11 -7 18 -10 9 -11 8 -5 -6z"/>
<path d="M3742 6443 c7 -9 15 -10 29 -2 25 13 24 14 -10 14 -23 1 -28 -2 -19
-12z"/>
<path d="M3311 6423 c-1 -18 13 -23 29 -11 12 8 12 9 -2 5 -9 -3 -19 -1 -22 6
-3 9 -5 9 -5 0z"/>
<path d="M5175 6300 c-3 -5 -1 -10 4 -10 6 0 11 5 11 10 0 6 -2 10 -4 10 -3 0
-8 -4 -11 -10z"/>
<path d="M2681 6043 c-1 -17 16 -25 25 -12 4 7 3 9 -4 5 -5 -3 -13 0 -15 6 -4
9 -6 10 -6 1z"/>
<path d="M2820 6002 c0 -4 11 -8 25 -8 33 -2 33 11 0 14 -14 1 -25 -2 -25 -6z"/>
<path d="M2930 5867 c0 -9 4 -18 9 -21 5 -4 8 1 7 9 -3 21 -16 31 -16 12z"/>
<path d="M2400 5860 c-9 -6 -10 -10 -3 -10 6 0 15 5 18 10 8 12 4 12 -15 0z"/>
<path d="M6195 5460 c3 -5 8 -10 11 -10 2 0 4 5 4 10 0 6 -5 10 -11 10 -5 0
-7 -4 -4 -10z"/>
<path d="M1516 3817 c3 -10 9 -15 12 -12 3 3 0 11 -7 18 -10 9 -11 8 -5 -6z"/>
<path d="M1515 3728 c0 -28 9 -36 20 -19 3 5 1 13 -5 16 -8 5 -8 11 -1 19 8 9
7 13 -2 13 -7 0 -13 -12 -12 -29z"/>
<path d="M7473 3315 c0 -8 4 -12 9 -9 4 3 8 9 8 15 0 5 -4 9 -8 9 -5 0 -9 -7
-9 -15z"/>
<path d="M1585 3210 c3 -5 8 -10 11 -10 2 0 4 5 4 10 0 6 -5 10 -11 10 -5 0
-7 -4 -4 -10z"/>
<path d="M1660 3110 c-9 -6 -10 -10 -3 -10 6 0 15 5 18 10 8 12 4 12 -15 0z"/>
<path d="M5942 3041 c-11 -7 -10 -10 3 -15 23 -9 25 -8 25 9 0 17 -9 19 -28 6z"/>
<path d="M1835 3000 c-3 -5 -1 -10 4 -10 6 0 11 5 11 10 0 6 -2 10 -4 10 -3 0
-8 -4 -11 -10z"/>
<path d="M6430 2936 c0 -2 7 -7 16 -10 8 -3 12 -2 9 4 -6 10 -25 14 -25 6z"/>
<path d="M5614 2579 c-3 -6 -19 -9 -35 -7 -16 3 -29 2 -29 -1 0 -11 -85 -7
-92 4 -5 6 -8 6 -8 -1 0 -6 -12 -10 -27 -9 -16 1 -34 -3 -42 -9 -11 -8 -13 -8
-8 1 5 8 0 11 -13 10 -11 -1 -20 -6 -20 -12 0 -6 -3 -7 -8 0 -10 14 -32 17
-32 5 0 -5 -5 -10 -11 -10 -5 0 -7 5 -3 12 4 7 3 8 -4 4 -7 -4 -12 -14 -12
-22 0 -8 -5 -14 -11 -14 -6 0 -9 7 -6 14 4 10 1 13 -9 9 -7 -3 -14 -9 -14 -14
0 -5 -30 -9 -66 -9 -51 0 -65 -3 -61 -13 7 -19 -54 -16 -79 3 -18 14 -18 14
-5 -2 16 -21 19 -20 -46 -22 -29 -1 -56 -6 -60 -11 -5 -4 -2 -5 6 0 9 5 12 3
9 -6 -3 -8 -18 -15 -34 -15 -16 -1 -40 -2 -53 -3 -21 -1 -22 -3 -10 -18 12
-16 11 -16 -8 0 -17 15 -25 17 -40 7 -15 -10 -16 -11 -1 -6 10 3 19 2 22 -2 3
-4 -7 -9 -22 -10 -42 -4 -56 -7 -71 -16 -10 -6 -12 -5 -7 2 11 18 -6 14 -34
-8 -14 -11 -40 -20 -58 -20 -20 0 -35 -6 -38 -15 -4 -8 -10 -12 -15 -9 -5 3
-9 1 -9 -5 0 -5 -12 -8 -26 -6 -19 2 -24 -1 -19 -13 4 -12 3 -13 -10 -2 -9 7
-18 10 -22 6 -3 -3 -1 -6 5 -6 7 0 12 -5 12 -10 0 -6 -11 -8 -24 -6 -13 2 -27
2 -30 -2 -6 -5 -19 -8 -63 -14 -7 -1 -10 -5 -7 -10 3 -5 10 -6 15 -3 5 4 9 2
9 -3 0 -5 -23 -8 -51 -8 -27 1 -53 -2 -56 -8 -4 -5 -1 -6 7 -1 8 5 11 3 8 -6
-3 -8 -21 -15 -42 -17 -26 -2 -36 -7 -33 -17 4 -9 -1 -11 -15 -7 -13 3 -19 1
-15 -5 3 -5 -4 -9 -16 -8 -12 1 -28 -3 -36 -9 -10 -7 -13 -8 -8 0 3 6 0 11 -8
11 -7 0 -12 -8 -10 -19 4 -20 -20 -25 -28 -5 -4 10 -6 10 -6 0 -1 -7 -10 -13
-21 -13 -14 0 -18 -5 -13 -16 4 -12 2 -15 -8 -12 -8 3 -13 11 -11 17 1 7 -2
10 -7 6 -6 -3 -8 -12 -5 -20 4 -11 -1 -13 -21 -9 -19 3 -24 1 -19 -7 5 -9 0
-10 -17 -6 -21 5 -22 5 -7 -7 19 -14 21 -13 -69 -19 -16 -2 -19 -5 -11 -14 7
-9 7 -13 -1 -14 -6 -1 -15 -3 -21 -4 -5 -1 -22 -3 -37 -4 l-28 -2 24 -13 24
-13 -26 -2 c-56 -3 -57 -4 -46 -18 8 -9 8 -13 0 -14 -26 -3 -30 -4 -36 -11 -4
-4 -14 -4 -23 -2 -10 3 -6 -2 8 -11 23 -15 23 -16 3 -12 -17 4 -23 0 -25 -17
-2 -12 -9 -20 -18 -19 -20 3 -38 -27 -46 -74 -4 -21 -7 -45 -9 -53 -1 -8 1
-27 5 -41 5 -16 4 -31 -3 -38 -6 -6 -7 -11 -1 -11 5 0 11 -9 12 -20 3 -41 5
-49 11 -48 34 3 51 -4 51 -23 0 -11 4 -17 10 -14 6 4 18 1 27 -7 12 -9 15 -9
9 0 -12 19 21 14 34 -5 8 -13 10 -14 7 -2 -4 12 3 15 37 13 22 -2 43 -4 46 -5
3 -1 10 0 15 1 6 1 6 -2 2 -6 -12 -12 -38 -14 -31 -2 5 7 2 8 -5 4 -22 -14 -1
-20 65 -21 60 -1 69 3 65 28 -1 5 3 6 9 2 6 -3 8 -10 5 -15 -3 -4 2 -10 10
-14 8 -3 17 0 21 6 4 6 3 8 -3 5 -5 -3 -10 0 -10 7 0 18 24 9 31 -10 6 -17 26
-10 26 9 0 7 -4 6 -11 -3 -8 -12 -10 -12 -7 -1 2 8 12 15 21 17 9 1 15 -2 11
-7 -3 -5 0 -9 5 -9 6 0 11 4 11 8 0 11 40 9 59 -2 9 -6 12 -5 8 1 -3 5 13 9
41 8 26 0 51 1 56 4 17 8 91 7 111 -2 20 -8 20 -8 1 7 -11 9 -17 19 -13 22 4
4 14 1 24 -7 14 -12 16 -12 8 0 -6 11 -2 13 19 9 14 -3 26 -2 26 1 0 3 45 6
100 6 56 0 108 3 118 8 13 5 11 6 -5 3 -13 -2 -23 -1 -23 4 0 4 -15 6 -32 4
-18 -2 -28 0 -21 4 15 10 85 8 103 -3 8 -5 11 -4 7 2 -4 6 23 10 69 11 43 1
73 -2 69 -7 -3 -5 1 -11 7 -14 7 -2 1 -8 -14 -12 -20 -5 -28 -14 -28 -29 0
-17 -2 -18 -10 -6 -9 13 -11 13 -20 0 -5 -8 -10 -21 -10 -28 0 -7 -5 -10 -10
-7 -6 4 -18 1 -27 -7 -14 -11 -16 -11 -9 2 4 8 -1 5 -11 -7 -15 -18 -38 -27
-85 -32 -5 -1 -8 -7 -8 -14 0 -12 -23 -18 -77 -20 -17 -1 -20 -4 -11 -14 11
-14 22 -18 14 -5 -2 4 4 8 15 8 11 0 15 -4 10 -9 -5 -5 -32 -10 -60 -10 -33
-1 -51 -5 -51 -13 0 -7 -4 -16 -10 -19 -6 -3 -7 1 -4 10 5 11 2 14 -10 9 -9
-3 -13 -11 -10 -16 4 -6 1 -8 -7 -6 -8 3 -22 1 -31 -4 -13 -6 -18 -5 -18 4 0
9 -3 9 -11 1 -6 -6 -18 -9 -25 -6 -8 3 -14 0 -14 -7 0 -6 5 -8 10 -5 6 3 10 1
10 -4 0 -6 -16 -11 -35 -12 -19 -1 -45 -2 -57 -2 -13 -1 -26 -6 -30 -11 -5 -7
-8 -6 -8 3 0 11 -3 11 -17 0 -9 -8 -14 -9 -11 -4 4 7 -4 11 -21 10 -15 0 -28
-5 -28 -11 0 -6 9 -9 21 -6 12 3 18 1 14 -3 -8 -8 -108 -14 -260 -15 -83 0
-97 -2 -101 -18 -4 -16 -5 -16 -6 1 -1 19 -31 24 -31 5 0 -9 -3 -9 -8 -3 -7
12 -11 12 -192 16 -99 3 -117 6 -132 23 -10 10 -18 15 -18 10 0 -6 5 -15 12
-22 9 -9 8 -12 -4 -12 -9 0 -19 7 -22 16 -4 10 -13 13 -27 9 -12 -4 -19 -3
-16 2 3 4 -16 9 -41 10 -26 0 -59 1 -74 2 -16 1 -28 6 -28 12 0 6 9 9 20 6 11
-3 18 -1 15 4 -6 9 -65 7 -65 -3 0 -3 6 -8 13 -11 6 -3 2 -4 -9 -4 -14 1 -20
6 -17 14 5 13 -5 15 -57 15 -14 0 -28 5 -32 12 -5 7 -8 7 -8 1 0 -12 -46 -12
-57 0 -5 4 -2 5 5 1 7 -4 12 -2 12 6 0 9 -10 13 -27 12 -35 -2 -76 13 -69 25
3 5 -5 9 -18 9 -14 0 -37 8 -53 19 -15 11 -39 19 -53 19 -14 -1 -31 7 -38 16
-14 20 -32 24 -32 8 0 -6 5 -9 11 -8 6 2 13 -2 16 -9 3 -7 -3 -9 -16 -6 -12 3
-21 12 -21 19 0 8 -11 15 -25 15 -46 3 -50 4 -48 22 0 12 -4 16 -13 13 -7 -3
-21 5 -30 17 -11 15 -15 16 -11 5 4 -10 1 -20 -5 -24 -7 -4 -8 -3 -4 4 4 7 2
12 -3 12 -6 0 -10 6 -9 13 2 6 -5 11 -14 9 -11 -2 -18 3 -18 12 0 8 -5 18 -12
22 -8 5 -9 2 -5 -9 3 -9 2 -19 -4 -22 -5 -4 -9 -3 -8 2 4 20 -2 34 -13 32 -33
-4 -41 1 -28 16 15 18 -1 20 -19 3 -10 -11 -12 -10 -9 2 2 9 -4 15 -15 15 -10
0 -23 8 -28 18 -6 9 -14 15 -20 12 -5 -4 -9 -2 -9 4 0 5 -9 8 -20 6 -11 -2
-22 0 -25 6 -4 5 2 10 12 10 10 1 5 4 -12 8 -16 4 -29 12 -28 19 2 7 -14 15
-37 18 -40 7 -51 18 -27 27 11 5 -28 11 -60 10 -7 -1 -13 6 -13 14 0 8 5 11
13 7 7 -4 8 -3 4 2 -5 5 -24 9 -44 10 -19 2 -41 8 -47 15 -8 9 -6 10 9 5 13
-5 17 -4 10 3 -6 5 -27 11 -48 13 -33 2 -41 8 -39 28 0 3 -8 7 -19 7 -16 2
-18 -1 -9 -12 8 -10 8 -15 -1 -21 -7 -4 -9 -3 -6 3 12 19 -20 33 -81 36 -33 1
-67 8 -75 16 -9 7 -21 10 -27 6 -5 -3 -10 -1 -10 5 0 6 -5 8 -10 5 -6 -4 -7
-11 -4 -17 4 -6 2 -8 -4 -4 -5 3 -13 0 -16 -6 -3 -7 -4 -2 -1 12 3 14 2 20 -1
13 -3 -6 -19 -9 -37 -7 l-32 4 30 -14 30 -14 -38 3 c-23 2 -43 -3 -52 -12 -8
-8 -15 -10 -15 -4 0 6 -5 11 -11 11 -6 0 -9 -7 -5 -15 5 -14 -11 -21 -38 -16
-5 1 -6 -7 -3 -18 3 -11 2 -20 -2 -19 -20 2 -30 -4 -36 -22 -4 -11 -11 -18
-16 -15 -8 5 -14 -33 -10 -58 1 -5 -3 -6 -9 -2 -6 3 -7 12 -4 18 4 7 3 8 -2 4
-5 -5 -10 -17 -10 -28 -1 -10 -2 -20 -3 -21 -1 -2 -3 -30 -3 -63 -1 -54 0 -60
18 -57 15 2 16 1 5 -7 -16 -10 -25 -45 -10 -35 5 3 6 10 3 16 -4 7 -2 8 4 4 7
-4 12 -16 12 -27 0 -11 9 -29 20 -41 11 -12 19 -29 18 -37 -2 -8 7 -17 20 -20
13 -3 23 -9 23 -13 -2 -23 0 -28 11 -25 7 1 12 -4 11 -10 -3 -12 9 -17 29 -14
5 0 8 -4 8 -10 0 -5 6 -7 13 -3 8 5 8 2 -2 -9 -12 -15 -11 -17 8 -17 19 0 26
-10 22 -33 -1 -5 8 -6 19 -2 15 5 20 2 20 -14 0 -11 5 -23 12 -27 7 -5 8 -3 3
7 -7 11 -5 11 10 -1 10 -8 21 -14 24 -12 3 2 8 -5 11 -15 3 -10 12 -18 20 -18
8 0 17 -11 21 -25 4 -14 7 -19 8 -12 1 7 6 10 11 7 6 -4 8 -11 5 -16 -7 -11
36 -29 50 -21 6 3 4 -1 -3 -10 -14 -17 0 -34 18 -23 8 5 14 -14 12 -36 -1 -4
8 -5 18 -2 14 4 20 0 20 -10 0 -9 5 -19 12 -23 7 -5 9 -2 5 9 -4 11 -2 14 9
10 8 -3 13 -11 10 -18 -2 -6 0 -18 6 -26 8 -11 9 -10 4 3 -3 10 -1 18 4 18 6
0 10 -6 10 -14 0 -7 8 -20 17 -27 11 -10 14 -10 9 -1 -4 7 -2 12 5 12 6 0 9
-8 6 -19 -3 -14 1 -18 17 -17 11 1 20 -4 19 -11 -1 -6 12 -16 30 -22 26 -9 29
-14 17 -21 -8 -5 -10 -10 -5 -10 6 0 17 6 24 13 10 10 11 8 5 -7 -6 -16 -4
-18 10 -13 13 5 19 1 23 -13 3 -11 14 -20 24 -20 12 0 19 -7 19 -20 0 -11 3
-19 8 -19 21 4 32 -3 32 -20 0 -15 6 -18 30 -15 17 2 30 -1 30 -7 0 -6 -5 -7
-10 -4 -6 3 -10 1 -10 -4 0 -10 22 -16 43 -12 5 1 6 -2 4 -6 -6 -9 19 -34 30
-32 5 1 13 -7 18 -18 6 -11 18 -19 28 -17 12 2 17 -2 13 -12 -6 -16 21 -33 47
-29 10 2 16 -2 14 -8 -5 -16 15 -36 30 -30 7 3 13 -2 13 -11 0 -14 18 -21 43
-17 11 2 8 -13 -5 -29 -11 -12 -10 -12 5 -1 11 9 17 10 17 2 0 -6 3 -10 8 -10
4 1 16 1 27 0 17 -1 18 -3 5 -11 -13 -8 -12 -10 3 -10 10 0 15 -4 12 -10 -3
-6 1 -7 9 -4 14 5 20 -4 18 -27 -1 -3 15 -5 34 -4 29 1 33 -2 28 -18 -4 -12
-1 -18 8 -16 26 3 39 -1 33 -11 -3 -6 -1 -10 4 -10 6 0 11 5 11 12 0 6 3 8 6
5 4 -4 1 -14 -6 -22 -7 -9 -9 -15 -4 -14 22 4 64 -2 62 -8 -1 -5 10 -21 26
-38 19 -20 25 -23 18 -9 -9 16 -8 21 3 21 8 0 14 -3 13 -6 -2 -22 5 -31 22
-31 13 0 20 -7 20 -19 0 -14 6 -18 25 -16 14 2 25 -1 25 -6 0 -4 8 -5 18 -2
15 6 16 5 2 -12 -14 -17 -13 -18 8 -13 14 4 22 2 22 -7 0 -16 28 -30 68 -34 6
0 12 -8 12 -16 0 -10 10 -15 30 -15 26 0 34 -7 32 -30 0 -3 15 -5 33 -4 26 2
36 -3 40 -17 5 -14 16 -19 40 -19 25 0 33 -4 29 -14 -3 -8 -1 -17 5 -21 6 -3
11 -1 11 6 0 8 3 9 13 0 8 -6 16 -8 20 -5 3 3 14 1 24 -6 15 -10 16 -11 1 -6
-10 3 -19 2 -22 -2 -3 -4 5 -9 17 -9 12 -1 23 -6 25 -11 1 -5 17 -8 35 -6 21
3 27 1 18 -5 -7 -5 -10 -14 -6 -20 5 -9 11 -7 21 6 11 14 13 15 8 2 -4 -13 0
-15 20 -12 16 3 26 1 26 -6 0 -13 21 -10 33 4 5 6 5 0 2 -12 -6 -21 -3 -23 37
-24 24 -1 47 -1 51 0 5 1 6 -3 2 -9 -3 -5 -1 -10 5 -10 6 0 9 -3 6 -8 -2 -4
12 -7 32 -7 21 1 43 -3 50 -8 8 -6 12 -5 13 4 0 8 4 5 8 -6 8 -19 61 -31 61
-13 0 4 -10 6 -23 4 -16 -3 -24 1 -24 10 0 9 4 11 10 5 5 -5 16 -7 23 -4 8 3
17 -2 20 -11 3 -9 10 -16 16 -16 5 0 6 6 2 13 -6 9 -5 9 8 0 22 -19 314 -13
310 5 -1 8 2 11 8 7 6 -3 8 -10 5 -15 -3 -5 29 -8 70 -7 41 1 75 5 75 10 0 5
-9 5 -20 2 -12 -4 -20 -2 -20 5 0 6 5 8 10 5 6 -3 10 -1 10 6 0 9 3 9 14 0 10
-9 16 -9 21 -1 5 8 11 8 21 -1 11 -9 14 -8 15 2 0 8 4 5 9 -6 8 -19 9 -19 9
-1 1 15 4 16 16 6 8 -7 15 -8 15 -3 0 5 29 8 64 8 36 -1 62 3 60 7 -7 11 4 10
27 -3 17 -9 21 -7 25 9 5 16 16 19 76 20 42 1 74 6 78 13 6 8 9 7 13 -2 5 -12
7 -11 16 1 5 8 7 18 5 22 -3 4 0 8 5 8 6 0 11 -5 11 -11 0 -5 5 -7 12 -3 7 4
32 8 57 8 26 1 53 5 61 11 20 13 32 15 115 21 45 4 77 12 89 22 18 16 19 16
13 -1 -4 -9 -2 -17 3 -17 6 0 10 10 11 23 0 21 1 21 9 2 8 -19 9 -19 9 -1 1
16 3 17 18 5 9 -8 14 -9 10 -3 -5 8 8 12 41 13 89 2 110 5 105 18 -4 9 6 13
29 13 19 0 40 6 47 12 11 11 12 10 6 -1 -5 -9 -3 -12 6 -9 8 3 13 11 11 17 -1
7 2 10 8 6 6 -3 8 -11 5 -16 -4 -5 -1 -9 4 -9 6 0 11 6 11 14 0 20 17 29 26
15 4 -8 3 -9 -4 -5 -18 11 -14 0 5 -15 10 -9 14 -9 10 -2 -11 18 21 30 76 29
26 -1 47 3 47 8 0 5 7 3 15 -4 13 -11 14 -10 9 4 -4 11 -14 15 -31 11 -14 -2
-22 -1 -18 3 3 4 37 7 74 8 38 1 73 4 80 8 6 4 16 4 22 1 6 -4 9 0 7 11 -3 16
6 18 71 20 40 1 78 7 84 13 7 7 4 9 -13 6 -12 -2 -20 -1 -16 2 4 4 33 9 64 11
31 2 60 9 64 15 5 8 8 8 8 1 0 -6 7 -11 15 -11 10 0 12 4 5 12 -6 7 -3 11 9
11 10 0 18 -5 17 -11 -2 -5 -1 -7 1 -2 3 4 9 5 14 2 5 -4 7 0 4 7 -4 10 12 13
69 13 58 0 72 3 64 13 -8 9 -5 12 11 12 12 0 31 5 42 10 13 8 19 7 19 0 0 -6
5 -8 12 -4 7 4 26 9 43 10 85 6 103 9 99 16 -3 5 -9 6 -14 3 -5 -3 -11 -2 -13
2 -3 5 14 8 38 9 24 0 42 -3 39 -7 -2 -4 0 -11 6 -14 6 -4 9 -1 8 7 -2 10 21
13 106 13 97 0 110 -2 122 -20 8 -11 14 -14 14 -7 0 8 5 10 12 6 6 -4 25 -8
42 -8 17 -1 37 -5 44 -10 7 -4 12 -2 12 4 0 8 6 8 20 0 11 -6 19 -14 16 -18
-4 -7 19 -10 102 -15 12 0 22 -5 22 -9 0 -4 5 -8 11 -8 5 0 7 6 3 12 -5 10 -4
10 6 1 7 -6 20 -9 29 -6 13 4 14 3 1 -5 -8 -6 -17 -9 -21 -6 -4 2 -10 1 -13
-4 -3 -5 9 -9 27 -9 72 -1 78 -3 71 -15 -5 -8 -1 -7 10 1 16 13 17 13 14 -4
-2 -17 3 -20 40 -21 85 -3 88 -4 72 -13 -8 -6 -18 -7 -24 -4 -5 3 -6 2 -3 -4
3 -5 20 -8 36 -7 17 1 33 -1 35 -5 3 -4 24 -6 48 -5 41 2 42 2 18 -12 -25 -14
-25 -14 12 -12 23 1 34 6 30 12 -3 6 -6 118 -7 249 0 180 3 236 12 233 7 -3
10 1 6 9 -3 8 -9 12 -14 9 -5 -3 -9 -1 -9 5 0 5 5 13 10 16 6 4 7 12 3 18 -4
6 -7 105 -7 219 -1 158 2 207 11 204 7 -3 10 1 6 9 -3 8 -9 12 -14 9 -5 -3 -9
-1 -9 5 0 5 5 13 10 16 6 4 7 12 3 18 -12 19 -10 310 2 326 6 10 6 13 0 9 -7
-4 -10 25 -10 83 0 60 4 88 11 85 6 -2 11 2 11 9 0 7 -5 11 -11 9 -13 -5 -14
104 -2 125 5 8 5 12 0 8 -5 -3 -9 21 -9 54 0 32 3 59 8 59 4 0 7 5 7 11 0 5
-4 7 -10 4 -5 -3 -10 -2 -10 4 0 5 7 14 16 19 15 8 14 10 -2 16 -16 6 -16 8
-4 16 13 8 12 10 -2 10 -10 0 -18 6 -18 13 0 8 -4 7 -10 -3 -6 -9 -10 -10 -10
-3 0 7 -12 10 -30 8 -19 -3 -33 1 -38 11 -5 9 -26 17 -48 20 -21 2 -50 6 -64
8 -14 2 -29 4 -34 5 -5 1 -4 7 2 14 8 10 6 13 -9 14 -12 1 -17 -3 -13 -9 5 -7
2 -8 -7 -2 -13 8 -43 13 -104 15 -11 1 -14 3 -7 6 20 8 14 26 -8 20 -11 -3
-22 -1 -25 3 -3 4 -15 6 -27 2 -16 -4 -20 -2 -16 10 6 16 -17 18 -40 4 -8 -5
-11 -3 -10 5 2 7 -8 13 -23 14 -14 1 -30 5 -36 8 -6 4 -14 1 -16 -5 -4 -10 -6
-9 -6 1 -1 10 -4 11 -14 2 -10 -8 -14 -7 -14 4 0 8 3 12 7 10 3 -2 12 0 20 5
10 6 1 8 -28 6 -23 -2 -45 1 -48 6 -3 4 -10 6 -15 2 -13 -7 -41 15 -33 27 3 5
0 9 -5 9 -14 0 -14 -13 1 -28 9 -9 9 -12 0 -12 -6 0 -16 9 -22 20 -9 16 -15
18 -30 10 -12 -6 -20 -7 -20 -1 0 5 -7 12 -16 15 -10 4 -13 2 -8 -7 6 -9 4 -9
-8 1 -13 10 -17 10 -21 0 -3 -7 -6 -4 -6 8 -1 16 -8 21 -42 23 -23 1 -48 9
-56 17 -9 8 -18 12 -21 9 -4 -3 0 -11 8 -16 12 -8 11 -9 -5 -7 -11 2 -19 10
-18 19 2 9 -5 15 -16 15 -11 0 -17 -5 -13 -11 3 -5 -2 -4 -11 4 -9 7 -24 10
-33 7 -12 -5 -15 -2 -10 11 5 15 4 15 -9 -1 -8 -11 -15 -15 -15 -8 0 6 -9 9
-20 7 -12 -2 -18 0 -15 6 4 5 10 7 14 5 4 -3 13 -1 20 4 9 5 4 8 -15 8 -82 2
-124 6 -124 14 0 5 4 7 8 4 4 -2 14 -1 22 4 12 7 11 9 -5 9 -38 -1 -153 13
-175 21 -3 1 -9 2 -13 1 -5 -1 -6 3 -2 9 5 8 -47 16 -77 11 -5 0 -8 5 -8 11 0
9 -3 8 -10 -2 -7 -12 -12 -12 -22 -2 -9 9 -9 12 1 12 7 0 9 5 5 11 -4 8 -12 3
-20 -12 l-14 -24 -6 23 c-5 18 -9 20 -15 10 -5 -7 -9 -8 -9 -2 0 6 -25 10 -62
10 -35 -1 -71 3 -80 7 -10 4 -18 4 -18 0 0 -11 -92 -3 -108 9 -9 8 -18 6 -31
-6 -14 -13 -21 -14 -27 -5 -5 8 -3 10 6 4 9 -5 11 -4 6 3 -9 15 -13 15 -22 1z
m-924 -179 c0 -5 -8 -10 -17 -10 -15 0 -16 2 -3 10 19 12 20 12 20 0z m-86
-41 c-3 -5 -10 -7 -15 -3 -5 3 -7 10 -3 15 3 5 10 7 15 3 5 -3 7 -10 3 -15z
m-279 -99 c3 -5 1 -10 -4 -10 -6 0 -11 5 -11 10 0 6 2 10 4 10 3 0 8 -4 11
-10z m2720 0 c3 -5 1 -10 -4 -10 -6 0 -11 5 -11 10 0 6 2 10 4 10 3 0 8 -4 11
-10z m-3393 -362 c-7 -7 -12 -8 -12 -2 0 14 12 26 19 19 2 -3 -1 -11 -7 -17z
m-1384 -103 c-3 -3 -9 2 -12 12 -6 14 -5 15 5 6 7 -7 10 -15 7 -18z m1387
-115 c3 -5 1 -10 -4 -10 -6 0 -11 5 -11 10 0 6 2 10 4 10 3 0 8 -4 11 -10z
m298 -81 c-8 -8 -13 -7 -18 2 -5 8 -4 10 3 5 7 -4 12 -2 12 5 0 7 3 9 7 6 4
-4 2 -12 -4 -18z m-43 1 c0 -5 -2 -10 -4 -10 -3 0 -8 5 -11 10 -3 6 -1 10 4
10 6 0 11 -4 11 -10z m-1061 -87 c2 -1 -5 -1 -16 0 -11 0 -20 7 -20 14 0 10 4
10 16 1 9 -7 18 -13 20 -15z m521 -127 c0 -3 -4 -8 -10 -11 -5 -3 -10 -1 -10
4 0 6 5 11 10 11 6 0 10 -2 10 -4z m-875 -626 c3 -5 1 -10 -4 -10 -6 0 -11 5
-11 10 0 6 2 10 4 10 3 0 8 -4 11 -10z m4408 -317 c-3 -6 -11 -9 -19 -6 -20 7
-17 19 5 19 11 0 17 -6 14 -13z m151 -34 c3 -3 -4 -5 -14 -6 -11 -1 -22 2 -25
8 -6 9 30 7 39 -2z m-3928 -75 c2 -12 -1 -13 -12 -3 -7 6 -11 16 -8 21 7 11
17 3 20 -18z m2278 -133 c-8 -8 -34 -10 -38 -2 -3 4 6 7 19 7 14 0 22 -2 19
-5z m-214 -41 c0 -5 -2 -10 -4 -10 -3 0 -8 5 -11 10 -3 6 -1 10 4 10 6 0 11
-4 11 -10z m-1430 -96 c0 -8 -19 -13 -24 -6 -3 5 1 9 9 9 8 0 15 -2 15 -3z
m897 -11 c0 -9 -4 -10 -14 -2 -7 6 -13 12 -13 14 0 1 6 2 13 2 8 0 14 -6 14
-14z m-318 -36 c0 -9 -2 -8 -6 1 -2 6 -10 9 -15 6 -7 -4 -8 -2 -4 5 9 13 26 5
25 -12z"/>
<path d="M5070 2520 c0 -5 5 -10 10 -10 6 0 10 5 10 10 0 6 -4 10 -10 10 -5 0
-10 -4 -10 -10z"/>
<path d="M6143 2524 c4 -5 19 -9 33 -10 32 -1 21 9 -14 14 -15 2 -23 0 -19 -4z"/>
<path d="M2117 2413 c-10 -9 -9 -23 1 -23 5 0 9 7 9 15 0 17 -1 18 -10 8z"/>
<path d="M2216 2372 c-3 -5 1 -9 9 -9 8 0 12 4 9 9 -3 4 -7 8 -9 8 -2 0 -6 -4
-9 -8z"/>
<path d="M1822 2001 c6 -21 65 -23 72 -4 6 14 4 14 -10 2 -20 -16 -24 -16 -35
3 -7 10 -9 10 -9 -2 0 -13 -1 -13 -11 0 -8 12 -10 12 -7 1z"/>
<path d="M2646 1602 c-3 -5 1 -9 9 -9 8 0 12 4 9 9 -3 4 -7 8 -9 8 -2 0 -6 -4
-9 -8z"/>
<path d="M3790 1596 c0 -2 7 -7 16 -10 8 -3 12 -2 9 4 -6 10 -25 14 -25 6z"/>
<path d="M4646 1568 c3 -5 10 -6 15 -3 13 9 11 12 -6 12 -8 0 -12 -4 -9 -9z"/>
<path d="M1510 1561 c0 -5 5 -13 10 -16 6 -3 10 -2 10 4 0 5 -4 13 -10 16 -5
3 -10 2 -10 -4z"/>
<path d="M2930 1500 c0 -5 5 -10 11 -10 5 0 7 5 4 10 -3 6 -8 10 -11 10 -2 0
-4 -4 -4 -10z"/>
<path d="M1766 1313 c-6 -14 -5 -15 5 -6 7 7 10 15 7 18 -3 3 -9 -2 -12 -12z"/>
<path d="M6570 440 c0 -5 5 -10 11 -10 5 0 7 5 4 10 -3 6 -8 10 -11 10 -2 0
-4 -4 -4 -10z"/>
<path d="M5870 306 c0 -2 7 -9 15 -16 13 -11 14 -10 9 4 -5 14 -24 23 -24 12z"/>
<path d="M4860 78 c0 -11 22 -10 39 1 10 7 7 9 -12 8 -15 -1 -27 -5 -27 -9z"/>
<path d="M4690 45 c0 -8 2 -15 4 -15 2 0 6 7 10 15 3 8 1 15 -4 15 -6 0 -10
-7 -10 -15z"/>
<path d="M4407 17 c-3 -8 1 -14 8 -14 7 0 11 6 8 14 -6 16 -10 16 -16 0z"/>
</g>
</svg>
